<svg xmlns="http://www.w3.org/2000/svg" width="33" height="32" viewBox="0 0 33 32" fill="none"><path d="M0.5 4C0.5 1.79086 2.29086 0 4.5 0H28.5C30.7091 0 32.5 1.79086 32.5 4V28C32.5 30.2091 30.7091 32 28.5 32H4.5C2.29086 32 0.5 30.2091 0.5 28V4Z" fill="#FFFAEA"></path><path opacity="0.2" d="M24.75 8.5V12.25H8.25V8.5C8.25 8.30109 8.32902 8.11032 8.46967 7.96967C8.61032 7.82902 8.80109 7.75 9 7.75H24C24.1989 7.75 24.3897 7.82902 24.5303 7.96967C24.671 8.11032 24.75 8.30109 24.75 8.5Z" fill="#EA7600"></path><path d="M24 7H21.75V6.25C21.75 6.05109 21.671 5.86032 21.5303 5.71967C21.3897 5.57902 21.1989 5.5 21 5.5C20.8011 5.5 20.6103 5.57902 20.4697 5.71967C20.329 5.86032 20.25 6.05109 20.25 6.25V7H12.75V6.25C12.75 6.05109 12.671 5.86032 12.5303 5.71967C12.3897 5.57902 12.1989 5.5 12 5.5C11.8011 5.5 11.6103 5.57902 11.4697 5.71967C11.329 5.86032 11.25 6.05109 11.25 6.25V7H9C8.60218 7 8.22064 7.15804 7.93934 7.43934C7.65804 7.72064 7.5 8.10218 7.5 8.5V23.5C7.5 23.8978 7.65804 24.2794 7.93934 24.5607C8.22064 24.842 8.60218 25 9 25H24C24.3978 25 24.7794 24.842 25.0607 24.5607C25.342 24.2794 25.5 23.8978 25.5 23.5V8.5C25.5 8.10218 25.342 7.72064 25.0607 7.43934C24.7794 7.15804 24.3978 7 24 7ZM11.25 8.5V9.25C11.25 9.44891 11.329 9.63968 11.4697 9.78033C11.6103 9.92098 11.8011 10 12 10C12.1989 10 12.3897 9.92098 12.5303 9.78033C12.671 9.63968 12.75 9.44891 12.75 9.25V8.5H20.25V9.25C20.25 9.44891 20.329 9.63968 20.4697 9.78033C20.6103 9.92098 20.8011 10 21 10C21.1989 10 21.3897 9.92098 21.5303 9.78033C21.671 9.63968 21.75 9.44891 21.75 9.25V8.5H24V11.5H9V8.5H11.25ZM24 23.5H9V13H24V23.5Z" fill="#EA7600"></path></svg>