<svg xmlns="http://www.w3.org/2000/svg" width="32" height="32" viewBox="0 0 32 32" fill="none"><path d="M0 4C0 1.79086 1.79086 0 4 0H28C30.2091 0 32 1.79086 32 4V28C32 30.2091 30.2091 32 28 32H4C1.79086 32 0 30.2091 0 28V4Z" fill="#FFFAEA"></path><path opacity="0.2" d="M22.75 18.2505L19 22.0005L13 20.5005L7.75 16.7505L10.8138 10.6221L16 9.25049L21.1863 10.6221L21.2125 10.7505H17.5L13.2194 14.9027C13.1398 14.9822 13.0791 15.0786 13.0419 15.1848C13.0046 15.291 12.9917 15.4041 13.0042 15.516C13.0166 15.6278 13.054 15.7354 13.1137 15.8308C13.1733 15.9262 13.2537 16.0069 13.3488 16.0671C14.9903 17.1161 17.2188 17.0439 19 15.2505L22.75 18.2505Z" fill="#EA7600"></path><path d="M27.8406 14.1168L25.4481 9.32995C25.3599 9.15376 25.238 8.99666 25.0891 8.86762C24.9403 8.73858 24.7674 8.64012 24.5805 8.57788C24.3936 8.51563 24.1963 8.49081 23.9998 8.50484C23.8033 8.51887 23.6114 8.57147 23.4353 8.65964L21.1037 9.82495L16.1921 8.52557C16.0661 8.49278 15.9338 8.49278 15.8078 8.52557L10.8962 9.82495L8.56465 8.65964C8.38847 8.57147 8.19666 8.51887 8.00015 8.50484C7.80365 8.49081 7.60631 8.51563 7.4194 8.57788C7.23249 8.64012 7.05967 8.73858 6.91081 8.86762C6.76195 8.99666 6.63997 9.15376 6.55183 9.32995L4.15933 14.1159C4.07117 14.2921 4.01857 14.4839 4.00454 14.6804C3.99051 14.8769 4.01533 15.0742 4.07758 15.2611C4.13982 15.448 4.23828 15.6209 4.36732 15.7697C4.49636 15.9186 4.65346 16.0406 4.82965 16.1287L7.3609 17.3953L12.5631 21.1106C12.6398 21.165 12.7259 21.2048 12.8171 21.2278L18.8171 22.7278C18.9428 22.7593 19.0745 22.7577 19.1993 22.7232C19.3242 22.6887 19.438 22.6224 19.5296 22.5309L24.6925 17.3671L27.1693 16.1287C27.5249 15.9507 27.7953 15.6388 27.921 15.2615C28.0467 14.8843 28.0174 14.4725 27.8396 14.1168H27.8406ZM22.6946 17.2453L19.4687 14.6615C19.3242 14.5458 19.142 14.4876 18.9571 14.4981C18.7723 14.5087 18.5979 14.5873 18.4675 14.7187C16.7978 16.4006 14.9368 16.1878 13.75 15.4378L17.8037 11.5003H20.7859L23.3368 16.6012L22.6946 17.2453ZM7.8934 10.0003L9.81246 10.9584L7.41527 15.7443L5.49996 14.7871L7.8934 10.0003ZM18.7684 21.1687L13.3206 19.8074L8.70808 16.5131L11.3331 11.2631L16 10.0265L16.9187 10.2693L12.7 14.3643L12.6925 14.3728C12.5337 14.5316 12.4125 14.724 12.338 14.9359C12.2635 15.1478 12.2376 15.3736 12.2621 15.5969C12.2865 15.8201 12.3608 16.035 12.4794 16.2257C12.5981 16.4164 12.758 16.5781 12.9475 16.6987C14.875 17.9296 17.2009 17.7299 19.0328 16.2299L21.625 18.3121L18.7684 21.1687ZM24.5809 15.7434L22.1884 10.9621L24.1065 10.0003L26.5 14.7871L24.5809 15.7434ZM16.3543 24.4312C16.3138 24.5933 16.2203 24.7372 16.0887 24.8401C15.9571 24.9431 15.7949 24.9991 15.6278 24.9993C15.5661 24.9994 15.5047 24.9918 15.445 24.9768L11.5384 23.9999C11.447 23.9774 11.3608 23.9376 11.2843 23.8828L8.81402 22.1184C8.66213 21.9991 8.56209 21.8259 8.53474 21.6347C8.5074 21.4435 8.55484 21.2492 8.6672 21.0921C8.77956 20.9351 8.94818 20.8274 9.13794 20.7915C9.3277 20.7557 9.52397 20.7944 9.6859 20.8996L12.04 22.5815L15.8125 23.5228C16.0054 23.571 16.1713 23.6939 16.2736 23.8645C16.3759 24.035 16.4063 24.2392 16.3581 24.4321L16.3543 24.4312Z" fill="#EA7600"></path></svg>