<svg xmlns="http://www.w3.org/2000/svg" width="32" height="32" viewBox="0 0 32 32" fill="none"><path d="M0 4C0 1.79086 1.79086 0 4 0H28C30.2091 0 32 1.79086 32 4V28C32 30.2091 30.2091 32 28 32H4C1.79086 32 0 30.2091 0 28V4Z" fill="#FFFAEA"></path><path opacity="0.2" d="M19.75 17.5C19.75 18.2417 19.5301 18.9667 19.118 19.5834C18.706 20.2001 18.1203 20.6807 17.4351 20.9645C16.7498 21.2484 15.9958 21.3226 15.2684 21.1779C14.541 21.0333 13.8728 20.6761 13.3484 20.1517C12.8239 19.6272 12.4668 18.959 12.3221 18.2316C12.1774 17.5042 12.2516 16.7502 12.5355 16.0649C12.8193 15.3797 13.2999 14.794 13.9166 14.382C14.5333 13.9699 15.2583 13.75 16 13.75C16.9946 13.75 17.9484 14.1451 18.6517 14.8483C19.3549 15.5516 19.75 16.5054 19.75 17.5ZM10 9.25C9.40666 9.25 8.82664 9.42595 8.33329 9.75559C7.83994 10.0852 7.45543 10.5538 7.22836 11.1019C7.0013 11.6501 6.94189 12.2533 7.05765 12.8353C7.1734 13.4172 7.45912 13.9518 7.87868 14.3713C8.29824 14.7909 8.83279 15.0766 9.41473 15.1924C9.99667 15.3081 10.5999 15.2487 11.1481 15.0216C11.6962 14.7946 12.1648 14.4101 12.4944 13.9167C12.8241 13.4234 13 12.8433 13 12.25C13 11.4544 12.6839 10.6913 12.1213 10.1287C11.5587 9.56607 10.7957 9.25 10 9.25ZM22 9.25C21.4067 9.25 20.8266 9.42595 20.3333 9.75559C19.8399 10.0852 19.4554 10.5538 19.2284 11.1019C19.0013 11.6501 18.9419 12.2533 19.0576 12.8353C19.1734 13.4172 19.4591 13.9518 19.8787 14.3713C20.2982 14.7909 20.8328 15.0766 21.4147 15.1924C21.9967 15.3081 22.5999 15.2487 23.1481 15.0216C23.6962 14.7946 24.1648 14.4101 24.4944 13.9167C24.8241 13.4234 25 12.8433 25 12.25C25 11.4544 24.6839 10.6913 24.1213 10.1287C23.5587 9.56607 22.7957 9.25 22 9.25Z" fill="#EA7600"></path><path d="M26.95 18.1002C26.8712 18.1593 26.7816 18.2023 26.6862 18.2267C26.5908 18.2511 26.4915 18.2566 26.394 18.2426C26.2965 18.2287 26.2027 18.1957 26.1179 18.1455C26.0332 18.0953 25.9591 18.029 25.9 17.9502C25.448 17.3425 24.8596 16.8495 24.1822 16.5108C23.5048 16.1721 22.7574 15.9972 22 16.0002C21.8011 16.0002 21.6104 15.9211 21.4697 15.7805C21.3291 15.6398 21.25 15.4491 21.25 15.2502C21.25 15.0513 21.3291 14.8605 21.4697 14.7198C21.6104 14.5792 21.8011 14.5002 22 14.5002C22.4209 14.5001 22.8332 14.3821 23.1903 14.1594C23.5474 13.9368 23.8349 13.6184 24.0201 13.2406C24.2054 12.8627 24.2809 12.4405 24.2382 12.0219C24.1955 11.6032 24.0363 11.2049 23.7786 10.8723C23.5208 10.5396 23.175 10.2858 22.7803 10.1399C22.3856 9.9939 21.9579 9.96154 21.5458 10.0465C21.1336 10.1314 20.7535 10.3302 20.4487 10.6203C20.1439 10.9104 19.9265 11.2802 19.8213 11.6877C19.7967 11.7831 19.7535 11.8727 19.6942 11.9514C19.635 12.0302 19.5608 12.0965 19.4759 12.1465C19.391 12.1966 19.2971 12.2294 19.1995 12.2432C19.102 12.2569 19.0026 12.2514 18.9072 12.2267C18.8118 12.2021 18.7222 12.1589 18.6435 12.0997C18.5647 12.0404 18.4984 11.9662 18.4484 11.8813C18.3983 11.7965 18.3655 11.7026 18.3517 11.605C18.338 11.5074 18.3435 11.4081 18.3682 11.3127C18.5142 10.7476 18.7901 10.2245 19.1738 9.78487C19.5576 9.34523 20.0387 9.00124 20.5788 8.78025C21.119 8.55926 21.7032 8.46738 22.2851 8.51191C22.867 8.55645 23.4304 8.73618 23.9306 9.0368C24.4308 9.33742 24.8539 9.75063 25.1663 10.2436C25.4787 10.7365 25.6718 11.2955 25.7301 11.8762C25.7884 12.4568 25.7104 13.0431 25.5023 13.5883C25.2942 14.1335 24.9617 14.6226 24.5313 15.0167C25.5511 15.4583 26.4377 16.159 27.1028 17.0492C27.1619 17.1282 27.2049 17.2181 27.2292 17.3137C27.2535 17.4093 27.2587 17.5088 27.2445 17.6064C27.2303 17.704 27.197 17.7979 27.1465 17.8826C27.0959 17.9673 27.0292 18.0413 26.95 18.1002ZM21.8988 23.8752C21.9511 23.9605 21.9859 24.0555 22.0009 24.1546C22.016 24.2536 22.011 24.3546 21.9864 24.4517C21.9618 24.5488 21.918 24.6399 21.8575 24.7198C21.7971 24.7997 21.7213 24.8666 21.6346 24.9167C21.5479 24.9668 21.452 24.999 21.3526 25.0115C21.2532 25.0239 21.1524 25.0163 21.056 24.9891C20.9596 24.962 20.8696 24.9158 20.7913 24.8532C20.7131 24.7907 20.6481 24.7132 20.6004 24.6252C20.1278 23.8254 19.455 23.1626 18.6482 22.7022C17.8414 22.2417 16.9285 21.9996 15.9996 21.9996C15.0706 21.9996 14.1577 22.2417 13.3509 22.7022C12.5441 23.1626 11.8713 23.8254 11.3988 24.6252C11.3519 24.7148 11.2874 24.794 11.2091 24.8581C11.1308 24.9221 11.0403 24.9696 10.9432 24.9978C10.846 25.026 10.7442 25.0342 10.6438 25.022C10.5434 25.0099 10.4465 24.9775 10.3589 24.9268C10.2713 24.8762 10.1949 24.8084 10.1342 24.7275C10.0735 24.6466 10.0298 24.5542 10.0058 24.456C9.98169 24.3577 9.97775 24.2556 9.99417 24.1558C10.0106 24.056 10.047 23.9605 10.1013 23.8752C10.8284 22.6258 11.9371 21.6427 13.2644 21.0702C12.5175 20.4983 11.9686 19.7068 11.6948 18.8069C11.4211 17.9069 11.4362 16.9438 11.7381 16.053C12.04 15.1621 12.6135 14.3882 13.3779 13.8401C14.1424 13.2919 15.0594 12.9972 16 12.9972C16.9407 12.9972 17.8577 13.2919 18.6222 13.8401C19.3866 14.3882 19.9601 15.1621 20.262 16.053C20.5639 16.9438 20.579 17.9069 20.3052 18.8069C20.0314 19.7068 19.4825 20.4983 18.7357 21.0702C20.063 21.6427 21.1717 22.6258 21.8988 23.8752ZM16 20.5002C16.5934 20.5002 17.1734 20.3242 17.6667 19.9946C18.1601 19.6649 18.5446 19.1964 18.7717 18.6482C18.9987 18.1 19.0581 17.4968 18.9424 16.9149C18.8266 16.333 18.5409 15.7984 18.1214 15.3788C17.7018 14.9593 17.1673 14.6736 16.5853 14.5578C16.0034 14.4421 15.4002 14.5015 14.852 14.7285C14.3038 14.9556 13.8353 15.3401 13.5056 15.8335C13.176 16.3268 13 16.9068 13 17.5002C13 18.2958 13.3161 19.0589 13.8787 19.6215C14.4413 20.1841 15.2044 20.5002 16 20.5002ZM10.75 15.2502C10.75 15.0513 10.671 14.8605 10.5304 14.7198C10.3897 14.5792 10.1989 14.5002 10 14.5002C9.57922 14.5001 9.16685 14.3821 8.80976 14.1594C8.45267 13.9368 8.16518 13.6184 7.97994 13.2406C7.7947 12.8627 7.71915 12.4405 7.76185 12.0219C7.80455 11.6032 7.9638 11.2049 8.22151 10.8723C8.47922 10.5396 8.82507 10.2858 9.21976 10.1399C9.61444 9.9939 10.0422 9.96154 10.4543 10.0465C10.8665 10.1314 11.2466 10.3302 11.5514 10.6203C11.8562 10.9104 12.0736 11.2802 12.1788 11.6877C12.2285 11.8804 12.3528 12.0454 12.5242 12.1465C12.6956 12.2476 12.9002 12.2765 13.0928 12.2267C13.2855 12.177 13.4506 12.0528 13.5517 11.8813C13.6528 11.7099 13.6816 11.5054 13.6319 11.3127C13.4859 10.7476 13.21 10.2245 12.8262 9.78487C12.4425 9.34523 11.9614 9.00124 11.4212 8.78025C10.8811 8.55926 10.2969 8.46738 9.715 8.51191C9.13312 8.55645 8.56966 8.73618 8.06947 9.0368C7.56927 9.33742 7.14614 9.75063 6.83374 10.2436C6.52135 10.7365 6.3283 11.2955 6.26998 11.8762C6.21165 12.4568 6.28965 13.0431 6.49777 13.5883C6.70588 14.1335 7.03838 14.6226 7.46879 15.0167C6.44999 15.4587 5.56446 16.1594 4.90004 17.0492C4.84088 17.128 4.79782 17.2177 4.77332 17.3131C4.74882 17.4086 4.74336 17.5079 4.75724 17.6054C4.77113 17.703 4.80409 17.7968 4.85425 17.8816C4.90441 17.9664 4.97078 18.0405 5.04957 18.0997C5.12836 18.1589 5.21803 18.2019 5.31347 18.2264C5.4089 18.2509 5.50823 18.2564 5.60577 18.2425C5.70332 18.2286 5.79717 18.1956 5.88198 18.1455C5.96678 18.0953 6.04088 18.029 6.10004 17.9502C6.55209 17.3425 7.14049 16.8495 7.81787 16.5108C8.49526 16.1721 9.2427 15.9972 10 16.0002C10.1989 16.0002 10.3897 15.9211 10.5304 15.7805C10.671 15.6398 10.75 15.4491 10.75 15.2502Z" fill="#EA7600"></path></svg>