<svg xmlns="http://www.w3.org/2000/svg" width="32" height="32" viewBox="0 0 32 32" fill="none"><path d="M0 4C0 1.79086 1.79086 0 4 0H28C30.2091 0 32 1.79086 32 4V28C32 30.2091 30.2091 32 28 32H4C1.79086 32 0 30.2091 0 28V4Z" fill="#FFFAEA"></path><g clip-path="url(#clip0_3112_6796)"><path opacity="0.2" d="M19.75 13.375C19.75 14.4875 19.4201 15.5751 18.802 16.5001C18.1839 17.4251 17.3054 18.1461 16.2776 18.5718C15.2498 18.9976 14.1188 19.109 13.0276 18.8919C11.9365 18.6749 10.9342 18.1391 10.1475 17.3525C9.36086 16.5658 8.82513 15.5635 8.60809 14.4724C8.39104 13.3812 8.50244 12.2502 8.92818 11.2224C9.35392 10.1946 10.0749 9.31607 10.9999 8.69798C11.9249 8.0799 13.0125 7.75 14.125 7.75C15.6168 7.75 17.0476 8.34263 18.1025 9.39752C19.1574 10.4524 19.75 11.8832 19.75 13.375Z" fill="#EA7600"></path><path d="M17.5001 18.7823C18.6758 18.0501 19.581 16.9548 20.0788 15.6622C20.5766 14.3697 20.6399 12.9501 20.2591 11.6184C19.8783 10.2867 19.0741 9.11518 17.9682 8.2812C16.8623 7.44721 15.5149 6.99609 14.1298 6.99609C12.7447 6.99609 11.3972 7.44721 10.2913 8.2812C9.18545 9.11518 8.38126 10.2867 8.00045 11.6184C7.61964 12.9501 7.68292 14.3697 8.18072 15.6622C8.67852 16.9548 9.58375 18.0501 10.7595 18.7823C8.82353 19.4161 7.08165 20.6002 5.68103 22.267C5.6154 22.3421 5.5654 22.4295 5.53394 22.524C5.50247 22.6186 5.49019 22.7186 5.49779 22.818C5.5054 22.9174 5.53274 23.0142 5.57823 23.103C5.62371 23.1917 5.68643 23.2704 5.76271 23.3346C5.83898 23.3988 5.92729 23.4471 6.02247 23.4768C6.11764 23.5064 6.21778 23.5168 6.31702 23.5073C6.41625 23.4978 6.5126 23.4687 6.60043 23.4215C6.68826 23.3743 6.7658 23.3101 6.82853 23.2327C8.71103 20.9864 11.3042 19.7498 14.1251 19.7498C16.946 19.7498 19.5392 20.9864 21.4254 23.2327C21.5535 23.3851 21.7368 23.4804 21.9351 23.4976C22.1334 23.5148 22.3305 23.4526 22.4829 23.3245C22.6353 23.1965 22.7306 23.0131 22.7479 22.8148C22.7651 22.6165 22.7028 22.4194 22.5748 22.267C21.1732 20.6002 19.4313 19.4161 17.5001 18.7823ZM9.25009 13.3748C9.25009 12.4107 9.53601 11.4681 10.0717 10.6664C10.6073 9.86475 11.3687 9.23991 12.2595 8.87093C13.1503 8.50195 14.1305 8.40541 15.0762 8.59351C16.0218 8.78162 16.8905 9.24592 17.5722 9.9277C18.254 10.6095 18.7183 11.4781 18.9064 12.4238C19.0945 13.3694 18.998 14.3496 18.629 15.2404C18.26 16.1312 17.6352 16.8926 16.8335 17.4283C16.0318 17.9639 15.0893 18.2498 14.1251 18.2498C12.8326 18.2484 11.5935 17.7343 10.6796 16.8203C9.76567 15.9064 9.25158 14.6673 9.25009 13.3748ZM27.6485 17.4127L27.2117 17.1605C27.2629 16.8891 27.2629 16.6106 27.2117 16.3392L27.6485 16.087C27.7338 16.0378 27.8086 15.9722 27.8686 15.8941C27.9286 15.8159 27.9726 15.7267 27.9981 15.6316C28.0236 15.5364 28.0301 15.4372 28.0173 15.3395C28.0044 15.2418 27.9725 15.1477 27.9232 15.0623C27.874 14.977 27.8084 14.9022 27.7303 14.8423C27.6521 14.7823 27.5629 14.7383 27.4678 14.7128C27.3726 14.6873 27.2734 14.6808 27.1757 14.6936C27.078 14.7065 26.9838 14.7384 26.8985 14.7877L26.4607 15.0408C26.2512 14.861 26.0103 14.7215 25.7501 14.6292V14.1248C25.7501 13.9259 25.6711 13.7352 25.5304 13.5945C25.3898 13.4539 25.199 13.3748 25.0001 13.3748C24.8012 13.3748 24.6104 13.4539 24.4698 13.5945C24.3291 13.7352 24.2501 13.9259 24.2501 14.1248V14.6292C23.9899 14.7215 23.749 14.861 23.5395 15.0408L23.1017 14.7877C23.0163 14.7384 22.9222 14.7065 22.8245 14.6936C22.7268 14.6808 22.6276 14.6873 22.5324 14.7128C22.4373 14.7383 22.3481 14.7823 22.2699 14.8423C22.1918 14.9022 22.1262 14.977 22.077 15.0623C22.0277 15.1477 21.9958 15.2418 21.9829 15.3395C21.9701 15.4372 21.9766 15.5364 22.0021 15.6316C22.0276 15.7267 22.0716 15.8159 22.1316 15.8941C22.1916 15.9722 22.2663 16.0378 22.3517 16.087L22.7885 16.3392C22.7373 16.6106 22.7373 16.8891 22.7885 17.1605L22.3517 17.4127C22.2663 17.4619 22.1916 17.5275 22.1316 17.6056C22.0716 17.6838 22.0276 17.773 22.0021 17.8681C21.9766 17.9633 21.9701 18.0625 21.9829 18.1602C21.9958 18.2578 22.0277 18.352 22.077 18.4373C22.1262 18.5227 22.1918 18.5974 22.2699 18.6574C22.3481 18.7174 22.4373 18.7614 22.5324 18.7869C22.6276 18.8124 22.7268 18.8189 22.8245 18.8061C22.9222 18.7932 23.0163 18.7613 23.1017 18.712L23.5395 18.4589C23.749 18.6387 23.9899 18.7782 24.2501 18.8705V19.3748C24.2501 19.5738 24.3291 19.7645 24.4698 19.9052C24.6104 20.0458 24.8012 20.1248 25.0001 20.1248C25.199 20.1248 25.3898 20.0458 25.5304 19.9052C25.6711 19.7645 25.7501 19.5738 25.7501 19.3748V18.8705C26.0103 18.7782 26.2512 18.6387 26.4607 18.4589L26.8985 18.712C27.0124 18.7782 27.1418 18.8128 27.2735 18.8123C27.4387 18.8124 27.5992 18.758 27.7303 18.6574C27.8613 18.5569 27.9555 18.416 27.9983 18.2564C28.041 18.0969 28.0299 17.9277 27.9667 17.7752C27.9034 17.6226 27.7916 17.4952 27.6485 17.4127ZM25.0001 17.4998C24.8518 17.4998 24.7068 17.4559 24.5834 17.3734C24.4601 17.291 24.3639 17.1739 24.3072 17.0369C24.2504 16.8998 24.2356 16.749 24.2645 16.6035C24.2934 16.458 24.3649 16.3244 24.4698 16.2195C24.5747 16.1146 24.7083 16.0432 24.8538 16.0143C24.9993 15.9853 25.1501 16.0002 25.2871 16.0569C25.4242 16.1137 25.5413 16.2098 25.6237 16.3332C25.7061 16.4565 25.7501 16.6015 25.7501 16.7498C25.7501 16.9488 25.6711 17.1395 25.5304 17.2802C25.3898 17.4208 25.199 17.4998 25.0001 17.4998Z" fill="#EA7600"></path></g><defs><clipPath id="clip0_3112_6796"><rect width="24" height="24" fill="white" transform="translate(4 4)"></rect></clipPath></defs></svg>