<svg xmlns="http://www.w3.org/2000/svg" width="47" height="47" viewBox="0 0 47 47" fill="none"><path d="M23.5001 30.3224C20.9227 30.3224 20.013 29.716 19.1792 29.1095C18.9517 28.9579 18.8001 28.8063 18.5727 28.7305C16.2985 27.366 14.6308 25.016 13.8727 21.6805C12.8114 21.3015 11.3711 20.1644 11.3711 17.4353C11.3711 15.3127 12.3566 14.6305 12.4324 14.5547C12.8114 14.3273 13.2663 14.4031 13.4937 14.7821C13.7211 15.1611 13.6453 15.616 13.2663 15.8434C12.8872 16.0708 12.8114 16.2224 12.8114 17.5111C12.8114 20.0886 14.4034 20.3918 14.555 20.3918C14.8582 20.4676 15.1614 20.695 15.2372 20.9982C15.6921 23.1208 16.6775 26.0015 19.255 27.5176C19.5582 27.6692 19.7856 27.8208 20.013 27.9724C20.7711 28.5031 21.3775 28.8821 23.4243 28.8821C25.4711 28.8821 26.0775 28.5031 26.8356 27.9724C27.063 27.8208 27.2904 27.6692 27.5937 27.5176C30.1711 26.0015 31.2324 23.1966 31.6114 20.9982C31.6872 20.695 31.9904 20.3918 32.2937 20.3918C32.4453 20.3918 34.0372 20.0886 34.0372 17.5111C34.0372 16.2224 33.5824 15.8434 33.5824 15.8434C33.2034 15.616 33.1275 15.1611 33.4308 14.7821C33.6582 14.4031 34.1888 14.3273 34.4921 14.6305C34.5679 14.7063 35.5534 15.4644 35.5534 17.5111C35.5534 20.2402 34.113 21.3773 33.0517 21.7563C32.2937 25.016 30.7017 27.4418 28.3517 28.8063C28.1243 28.9579 27.8969 29.1095 27.7453 29.1853C26.9872 29.716 26.0775 30.3224 23.5001 30.3224Z" fill="#1D2939"></path><path d="M34.1129 15.9193C31.8387 15.9193 31.2323 13.8725 30.7016 12.2048C30.171 10.3096 29.7161 9.0967 28.0484 9.0967C26.9113 9.0967 26.1532 9.32411 25.471 9.47573C24.7887 9.70315 24.2581 9.85476 23.5 9.85476C22.7419 9.85476 22.2113 9.70315 21.529 9.47573C20.8468 9.32411 20.0887 9.0967 18.9516 9.0967C17.2839 9.0967 16.829 10.3096 16.2984 12.2048C15.7677 13.8725 15.1613 15.9193 12.8871 15.9193C12.4323 15.9193 12.129 15.616 12.129 15.1612C12.129 14.7064 12.4323 14.4031 12.8871 14.4031C13.9484 14.4031 14.2516 13.5693 14.8581 11.7499C15.3887 10.0064 16.1468 7.58057 18.9516 7.58057C20.3161 7.58057 21.2258 7.80799 21.9839 8.03541C22.5145 8.18702 22.9694 8.33863 23.5 8.33863C24.0306 8.33863 24.4855 8.18702 25.0161 8.03541C25.7742 7.80799 26.6839 7.58057 28.0484 7.58057C30.929 7.58057 31.6113 10.0064 32.1419 11.7499C32.6726 13.5693 33.0516 14.4031 34.1129 14.4031C34.5677 14.4031 34.871 14.7064 34.871 15.1612C34.871 15.616 34.5677 15.9193 34.1129 15.9193ZM46.2419 46.9999C45.7871 46.9999 45.4839 46.6967 45.4839 46.2419C45.4839 42.0725 45.4839 38.737 39.571 37.2967C34.6435 36.1596 28.8065 33.8854 28.8065 30.0193V26.9112C28.8065 26.4564 29.1097 26.1531 29.5645 26.1531C30.0194 26.1531 30.3226 26.4564 30.3226 26.9112V30.0193C30.3226 32.2177 33.8097 34.3402 39.8742 35.8564C47 37.5241 47 42.1483 47 46.166C47 46.6209 46.6968 46.9999 46.2419 46.9999ZM0.758065 46.2419H0C0 42.1483 0 37.5241 7.12581 35.8564C13.1903 34.416 16.6774 32.2935 16.6774 30.0193V26.9112C16.6774 26.4564 16.9806 26.1531 17.4355 26.1531C17.8903 26.1531 18.1935 26.4564 18.1935 26.9112V30.0193C18.1935 33.8854 12.3565 36.1596 7.42903 37.2967C1.51613 38.737 1.51613 42.0725 1.51613 46.166L0.758065 46.2419Z" fill="#1D2939"></path><path d="M34.3404 16.1468C34.2646 16.1468 34.1888 16.1468 34.0372 16.071C33.6582 15.9194 33.4308 15.4645 33.5824 15.0855C34.113 13.7968 34.113 12.129 34.113 10.6887C34.113 4.54839 30.6259 1.51613 23.5001 1.51613C19.634 1.51613 18.1179 2.95645 17.284 4.24516C17.2082 4.39677 17.0566 4.47258 16.905 4.54839C15.0098 5.30645 12.8114 7.58065 12.8114 11.4468C12.8114 13.0387 12.8114 13.8726 13.3421 15.1613C13.4937 15.5403 13.2663 15.9952 12.8872 16.1468C12.5082 16.2984 12.0534 16.071 11.9017 15.6919C11.3711 14.1 11.3711 12.9629 11.3711 11.371C11.3711 6.89839 13.9485 4.16935 16.1469 3.18387C17.7388 0.985484 20.0888 0 23.5001 0C31.5356 0 35.6292 3.63871 35.6292 10.7645C35.6292 12.2048 35.6292 14.1 35.0227 15.6919C34.9469 15.9194 34.6437 16.1468 34.3404 16.1468ZM27.2904 41.6936C27.063 41.6936 26.8356 41.6177 26.684 41.3903L22.8937 36.8419C22.7421 36.6145 22.6663 36.3113 22.7421 36.0839C22.8179 35.8565 23.0453 35.629 23.3485 35.629C25.9259 35.25 28.2001 33.8097 29.7163 31.6871C29.9437 31.3081 30.3985 31.2323 30.7775 31.5355C31.1566 31.7629 31.2324 32.2177 30.9292 32.5968C29.413 34.7194 27.2904 36.2355 24.7888 36.9177L27.7453 40.4806C28.0485 40.7839 27.9727 41.3145 27.6695 41.5419C27.6695 41.6177 27.4421 41.6936 27.2904 41.6936Z" fill="#1D2939"></path><path d="M27.2905 41.6933C27.0631 41.6933 26.8357 41.6175 26.6841 41.3901L22.8938 36.8417C22.7421 36.6143 22.6663 36.3111 22.7421 36.0836C22.8179 35.8562 23.0454 35.6288 23.3486 35.6288C25.926 35.2498 28.2002 33.8094 29.7163 31.6869C29.9438 31.3078 30.3986 31.232 30.7776 31.5352C31.1567 31.7627 31.2325 32.2175 30.9292 32.5965C29.4131 34.7191 27.2905 36.2352 24.7889 36.9175L27.7454 40.4804C28.0486 40.7836 27.9728 41.3143 27.6696 41.5417C27.6696 41.6175 27.4421 41.6933 27.2905 41.6933Z" fill="#EA7600"></path><path d="M19.71 41.6936C19.5584 41.6936 19.331 41.6178 19.2552 41.542C18.952 41.2388 18.8762 40.7839 19.1794 40.4807L22.1358 36.9178C19.71 36.2356 17.5116 34.7194 15.9955 32.5968C15.7681 32.2178 15.8439 31.763 16.1471 31.5356C16.5262 31.3081 16.981 31.3839 17.2084 31.6872C18.7245 33.8097 20.9987 35.2501 23.5762 35.6291C23.8794 35.7049 24.1068 35.8565 24.1826 36.0839C24.2584 36.3114 24.2584 36.6146 24.031 36.842L20.2407 41.3904C20.1649 41.6178 19.9374 41.6936 19.71 41.6936ZM27.2907 41.6936C27.0633 41.6936 26.76 41.542 26.6842 41.3146C26.4568 40.9356 26.6084 40.4807 26.9116 40.2533C29.4133 38.6614 31.6116 36.6146 33.2036 34.113C33.431 33.7339 33.8858 33.6581 34.2649 33.8856C34.6439 34.113 34.7197 34.5678 34.4923 34.9468C32.7487 37.6001 30.3987 39.8743 27.7455 41.542C27.5939 41.6936 27.4423 41.6936 27.2907 41.6936Z" fill="#EA7600"></path><path d="M19.7098 41.6933C19.5582 41.6933 19.4066 41.6933 19.3308 41.5417C16.6775 39.874 14.3275 37.5998 12.584 34.9465C12.3566 34.5675 12.4324 34.1127 12.8114 33.8852C13.1904 33.6578 13.6453 33.7336 13.8727 34.1127C15.4646 36.5385 17.663 38.6611 20.1646 40.253C20.5437 40.4804 20.6195 40.9352 20.392 41.3143C20.2404 41.5417 19.9372 41.6933 19.7098 41.6933ZM25.7743 46.9998C25.3953 46.9998 25.092 46.7723 25.0162 46.3933L24.2582 42.603V42.1481L25.3953 39.2675C25.5469 38.8885 26.0017 38.6611 26.3808 38.8127C26.7598 38.9643 26.9872 39.4191 26.8356 39.7982L25.7743 42.5272L26.4566 46.0901C26.5324 46.4691 26.3049 46.924 25.8501 46.9998H25.7743Z" fill="#EA7600"></path><path d="M21.2236 47.0007H21.072C20.693 46.9249 20.3898 46.5459 20.4656 46.091L21.1478 42.5281L20.0866 39.7991C19.9349 39.4201 20.1624 38.9652 20.5414 38.8136C20.9204 38.662 21.3753 38.8894 21.5269 39.2684L22.664 42.1491C22.7398 42.3007 22.7398 42.4523 22.664 42.6039L21.9059 46.3942C21.9059 46.7733 21.6027 47.0007 21.2236 47.0007Z" fill="#EA7600"></path><path d="M25.0164 43.2095H21.9841C21.5293 43.2095 21.2261 42.9063 21.2261 42.4514C21.2261 41.9966 21.5293 41.6934 21.9841 41.6934H25.0164C25.4712 41.6934 25.7745 41.9966 25.7745 42.4514C25.7745 42.9063 25.4712 43.2095 25.0164 43.2095Z" fill="#EA7600"></path></svg>