<svg xmlns="http://www.w3.org/2000/svg" width="56" height="56" viewBox="0 0 56 56" fill="none"><path d="M25.7212 24.4632H23.8749C23.6301 24.4632 23.3952 24.366 23.2221 24.1929C23.049 24.0197 22.9517 23.7849 22.9517 23.5401C22.9517 23.2952 22.8545 23.0604 22.6813 22.8873C22.5082 22.7142 22.2734 22.6169 22.0286 22.6169C21.7837 22.6169 21.5489 22.7142 21.3758 22.8873C21.2027 23.0604 21.1054 23.2952 21.1054 23.5401C21.1054 24.2746 21.3972 24.979 21.9166 25.4984C22.4359 26.0178 23.1404 26.3096 23.8749 26.3096V27.2327C23.8749 27.4776 23.9722 27.7124 24.1453 27.8855C24.3184 28.0586 24.5532 28.1559 24.7981 28.1559C25.0429 28.1559 25.2777 28.0586 25.4508 27.8855C25.624 27.7124 25.7212 27.4776 25.7212 27.2327V26.3096C26.4557 26.3096 27.1602 26.0178 27.6796 25.4984C28.1989 24.979 28.4907 24.2746 28.4907 23.5401V22.6169C28.4907 21.8824 28.1989 21.178 27.6796 20.6586C27.1602 20.1392 26.4557 19.8474 25.7212 19.8474H23.8749C23.6301 19.8474 23.3952 19.7502 23.2221 19.577C23.049 19.4039 22.9517 19.1691 22.9517 18.9242V18.0011C22.9517 17.7562 23.049 17.5214 23.2221 17.3483C23.3952 17.1752 23.6301 17.0779 23.8749 17.0779H25.7212C25.9661 17.0779 26.2009 17.1752 26.374 17.3483C26.5471 17.5214 26.6444 17.7562 26.6444 18.0011C26.6444 18.2459 26.7417 18.4807 26.9148 18.6539C27.0879 18.827 27.3227 18.9242 27.5676 18.9242C27.8124 18.9242 28.0472 18.827 28.2203 18.6539C28.3935 18.4807 28.4907 18.2459 28.4907 18.0011C28.4907 17.2666 28.1989 16.5621 27.6796 16.0428C27.1602 15.5234 26.4557 15.2316 25.7212 15.2316V14.3084C25.7212 14.0636 25.624 13.8288 25.4508 13.6556C25.2777 13.4825 25.0429 13.3853 24.7981 13.3853C24.5532 13.3853 24.3184 13.4825 24.1453 13.6556C23.9722 13.8288 23.8749 14.0636 23.8749 14.3084V15.2316C23.1404 15.2316 22.4359 15.5234 21.9166 16.0428C21.3972 16.5621 21.1054 17.2666 21.1054 18.0011V18.9242C21.1054 19.6588 21.3972 20.3632 21.9166 20.8826C22.4359 21.402 23.1404 21.6937 23.8749 21.6937H25.7212C25.9661 21.6937 26.2009 21.791 26.374 21.9641C26.5471 22.1373 26.6444 22.3721 26.6444 22.6169V23.5401C26.6444 23.7849 26.5471 24.0197 26.374 24.1929C26.2009 24.366 25.9661 24.4632 25.7212 24.4632ZM33.1066 35.5412H16.4896C16.2447 35.5412 16.0099 35.6385 15.8368 35.8116C15.6637 35.9847 15.5664 36.2196 15.5664 36.4644C15.5664 36.7092 15.6637 36.944 15.8368 37.1172C16.0099 37.2903 16.2447 37.3876 16.4896 37.3876H33.1066C33.3514 37.3876 33.5862 37.2903 33.7593 37.1172C33.9325 36.944 34.0297 36.7092 34.0297 36.4644C34.0297 36.2196 33.9325 35.9847 33.7593 35.8116C33.5862 35.6385 33.3514 35.5412 33.1066 35.5412ZM33.1066 40.1571H16.4896C16.2447 40.1571 16.0099 40.2543 15.8368 40.4274C15.6637 40.6006 15.5664 40.8354 15.5664 41.0802C15.5664 41.3251 15.6637 41.5599 15.8368 41.733C16.0099 41.9061 16.2447 42.0034 16.4896 42.0034H33.1066C33.3514 42.0034 33.5862 41.9061 33.7593 41.733C33.9325 41.5599 34.0297 41.3251 34.0297 41.0802C34.0297 40.8354 33.9325 40.6006 33.7593 40.4274C33.5862 40.2543 33.3514 40.1571 33.1066 40.1571ZM33.1066 30.9254H16.4896C16.2447 30.9254 16.0099 31.0227 15.8368 31.1958C15.6637 31.3689 15.5664 31.6037 15.5664 31.8486C15.5664 32.0934 15.6637 32.3282 15.8368 32.5013C16.0099 32.6745 16.2447 32.7717 16.4896 32.7717H33.1066C33.3514 32.7717 33.5862 32.6745 33.7593 32.5013C33.9325 32.3282 34.0297 32.0934 34.0297 31.8486C34.0297 31.6037 33.9325 31.3689 33.7593 31.1958C33.5862 31.0227 33.3514 30.9254 33.1066 30.9254Z" fill="#EA7600"></path><path d="M42.3381 6.00001H14.6431C13.4189 6.00001 12.2449 6.48632 11.3793 7.35195C10.5136 8.21759 10.0273 9.39164 10.0273 10.6158C10.0273 52.8137 9.84268 49.7581 10.4335 50.155C11.0243 50.552 10.9505 50.3766 15.5663 48.5395C20.2283 50.3858 20.0621 50.432 20.5237 50.2473L24.798 48.5395L29.0722 50.2473C29.543 50.432 29.3769 50.395 34.0388 48.5395C38.6547 50.3858 38.3962 50.312 38.6547 50.312C38.8995 50.312 39.1343 50.2147 39.3075 50.0416C39.4806 49.8684 39.5778 49.6336 39.5778 49.3888V15.2317H46.04C46.2848 15.2317 46.5196 15.1344 46.6928 14.9613C46.8659 14.7881 46.9632 14.5533 46.9632 14.3085V10.6158C46.9632 10.0089 46.8435 9.40792 46.6109 8.8473C46.3784 8.28668 46.0376 7.77743 45.608 7.34869C45.1784 6.91995 44.6684 6.58014 44.1073 6.34872C43.5463 6.11729 42.945 5.9988 42.3381 6.00001ZM37.7223 48.0225C34.1681 46.6008 34.1496 46.4993 33.688 46.6839L29.4138 48.3918C24.9457 46.6101 24.9364 46.4901 24.4564 46.6839L20.1821 48.3918L15.9079 46.6839C15.4463 46.4993 15.5201 46.5639 11.8736 48.0225V10.6158C11.8736 9.88132 12.1654 9.17689 12.6848 8.65751C13.2042 8.13813 13.9086 7.84634 14.6431 7.84634C40.4918 7.84634 38.7008 7.78172 38.5624 7.97558C37.4084 9.62805 37.7223 7.62478 37.7223 48.0225ZM45.1076 13.3853H39.5686V10.6158C39.5686 9.88132 39.8604 9.17689 40.3798 8.65751C40.8992 8.13813 41.6036 7.84634 42.3381 7.84634C43.0726 7.84634 43.7771 8.13813 44.2964 8.65751C44.8158 9.17689 45.1076 9.88132 45.1076 10.6158V13.3853Z" fill="#1D2939" stroke="white" stroke-width="0.2"></path></svg>