<svg xmlns="http://www.w3.org/2000/svg" width="56" height="56" viewBox="0 0 56 56" fill="none"><path d="M3.12661 49.1114C3.04126 49.243 2.99784 49.3974 3.00207 49.5542C3.00631 49.7111 3.05801 49.8629 3.15035 49.9897C3.3007 50.2034 3.54601 50.33 3.79924 50.33C3.85463 50.33 3.91002 50.33 3.97333 50.3142L11.2456 48.6999C13.3426 49.7682 15.6928 50.33 18.051 50.33C26.257 50.33 32.9437 43.7145 33.0703 35.5322C36.6313 36.4977 40.5325 36.1336 43.8403 34.456L51.1125 36.0624C51.1679 36.0782 51.2233 36.0782 51.2866 36.0782C51.5399 36.0782 51.7852 35.9516 51.9355 35.738C52.1175 35.4768 52.1254 35.1287 51.9593 34.8596L48.9918 30.1671C50.9943 27.544 52.0787 24.3352 52.078 21.0352C52.078 12.7421 45.3359 6 37.0428 6C28.7497 6 22.1501 12.6155 22.0234 20.7899C20.7573 20.4417 19.4279 20.2438 18.051 20.2438C9.74209 20.2518 3 26.9938 3 35.2869C3 38.5867 4.09203 41.8074 6.09408 44.4188L3.12661 49.1114ZM37.027 7.59056C44.4417 7.59056 50.4795 13.6284 50.4795 21.0431C50.4795 24.1688 49.3874 27.2154 47.3933 29.6131C47.1717 29.8743 47.148 30.2541 47.33 30.539L49.5853 34.0999L43.8877 32.8417C43.7057 32.8022 43.5079 32.8259 43.3417 32.9129C40.1843 34.5906 36.3781 34.915 32.9912 33.8546C32.4531 28.1492 28.7022 23.3617 23.5744 21.32C23.5744 21.2251 23.5665 21.1301 23.5665 21.0352C23.5665 13.6205 29.6043 7.58265 37.019 7.58265L37.027 7.59056ZM4.58265 35.2869C4.58265 27.8722 10.6205 21.8344 18.0352 21.8344C25.4499 21.8344 31.4877 27.8722 31.4877 35.2869C31.4877 42.7016 25.4499 48.7394 18.0352 48.7394C15.8353 48.7394 13.6512 48.1934 11.7125 47.1568C11.5982 47.0949 11.4705 47.0623 11.3406 47.0618C11.2852 47.0618 11.2219 47.0618 11.1665 47.0777L5.47685 48.3359L7.73212 44.7749C7.91413 44.4821 7.89039 44.1102 7.67673 43.8491C5.68259 41.4434 4.59056 38.3968 4.59056 35.2711L4.58265 35.2869Z" fill="#1D2939"></path><path d="M18.0351 42.4086C18.6907 42.4086 19.2221 41.8772 19.2221 41.2217C19.2221 40.5661 18.6907 40.0347 18.0351 40.0347C17.3796 40.0347 16.8481 40.5661 16.8481 41.2217C16.8481 41.8772 17.3796 42.4086 18.0351 42.4086Z" fill="#EA7600"></path><path d="M18.0352 28.9564C19.3409 28.9564 20.4092 30.0247 20.4092 31.3304C20.4092 32.6361 19.3409 33.7044 18.0352 33.7044C17.6 33.7044 17.2439 34.0605 17.2439 34.4957V38.4523H18.8266V35.2079C19.5601 35.0582 20.236 34.7034 20.7759 34.1849C21.3159 33.6663 21.6976 33.0052 21.8768 32.2784C22.056 31.5515 22.0253 30.7887 21.7884 30.0786C21.5514 29.3685 21.1178 28.7402 20.5379 28.2667C19.9581 27.7931 19.2558 27.4938 18.5127 27.4035C17.7695 27.3132 17.016 27.4355 16.3396 27.7563C15.6632 28.0771 15.0917 28.5833 14.6915 29.2159C14.2913 29.8486 14.0788 30.5818 14.0786 31.3304H15.6613C15.6613 30.0247 16.7296 28.9564 18.0352 28.9564ZM30.6964 15.5039H43.3576V17.0866H30.6964V15.5039ZM30.6964 20.2519H43.3576V21.8345H30.6964V20.2519ZM33.8617 24.9998H43.3576V26.5824H33.8617V24.9998Z" fill="#EA7600"></path></svg>