<svg xmlns="http://www.w3.org/2000/svg" width="56" height="56" viewBox="0 0 56 56" fill="none"><path d="M8.54492 39.9296V49.7671H47.4559V39.9296H8.54492ZM44.636 46.9472H35.4252V42.7494H44.6361L44.636 46.9472ZM32.6057 46.9472H23.3947V42.7494H32.6057V46.9472ZM20.5753 46.9472H11.3643V42.7494H20.5752L20.5753 46.9472ZM21.9848 33.9146H34.0156V36.734H21.9848V33.9146Z" fill="#1D2939" stroke="white"></path><path d="M10.0117 30.4277L13.2922 35.6377L16.4138 30.3309L22.3827 28.8211L18.3002 24.2123L18.7085 18.0691L13.0641 20.5275L7.34753 18.2404L7.94116 24.3687L4 29.0987L10.0117 30.4277ZM15.588 22.5035L15.4085 25.2003L17.2008 27.2233L14.5805 27.8861L13.2106 30.2156L11.7706 27.9286L9.13131 27.3453L10.8617 25.2692L10.601 22.579L13.1103 23.5828L15.588 22.5035ZM33.6173 28.8211L39.5862 30.3309L42.7078 35.6377L45.9883 30.4277L52 29.0987L48.0585 24.3687L48.6525 18.2404L42.9359 20.5275L37.2912 18.0687L37.6998 24.2123L33.6173 28.8211ZM46.8687 27.3453L44.2297 27.9286L42.7897 30.2156L41.4195 27.8861L38.7992 27.2233L40.5915 25.2003L40.412 22.5035L42.8898 23.5828L45.3991 22.5786L45.1387 25.2688L46.8687 27.3453ZM22.3189 24.4847L28 22.112L33.6811 24.4847L33.1801 18.3485L37.1923 13.6786L31.2014 12.2592L28 7L24.7986 12.2592L18.8077 13.6786L22.8199 18.3485L22.3189 24.4847ZM29.4051 14.731L32.0349 15.3544L30.2738 17.4041L30.4939 20.0979L28 19.0561L25.5061 20.0979L25.7262 17.4041L23.9647 15.354L26.5944 14.7311L28 12.4225L29.4051 14.731Z" fill="#EA7600" stroke="white"></path></svg>