<svg xmlns="http://www.w3.org/2000/svg" width="56" height="56" viewBox="0 0 56 56" fill="none"><path d="M36.6939 21.7551H43.1837V25.6735L52 17.8367L43.1837 10V13.9183H31.4286V17.9043M19.3061 34.4898H12.8163V30.5714L4 38.4082L12.8163 46.2449V42.3265H24.5714V38.3406" stroke="#1D2939" stroke-width="1.8" stroke-miterlimit="10" stroke-linecap="round" stroke-linejoin="round"></path><path d="M29.9398 23.8744L29.9315 23.8676L29.9186 23.8573C29.7535 23.7277 28.6382 22.9154 27.1334 23.3686C25.5706 23.8395 25.1825 25.9778 26.2445 26.8108C26.8544 27.2891 27.772 27.6823 29.0085 28.1195C31.7763 29.0978 30.7531 33.001 27.9378 33.0198C26.8392 33.0271 26.3255 32.9573 25.3604 32.3259M27.9996 21.2651V23.2244M27.9996 33.0203V34.9795" stroke="#EA7600" stroke-width="1.8" stroke-miterlimit="10" stroke-linecap="round" stroke-linejoin="round"></path><path d="M28.0001 38.8977C33.9513 38.8977 38.7756 34.0733 38.7756 28.1222C38.7756 22.171 33.9513 17.3467 28.0001 17.3467C22.049 17.3467 17.2246 22.171 17.2246 28.1222C17.2246 34.0733 22.049 38.8977 28.0001 38.8977Z" stroke="#EA7600" stroke-width="1.8" stroke-miterlimit="10" stroke-linecap="round" stroke-linejoin="round"></path></svg>