<svg xmlns="http://www.w3.org/2000/svg" width="56" height="56" viewBox="0 0 56 56" fill="none"><path d="M29.1192 29.1147C29.0207 29.0931 28.9191 29.0897 28.8193 29.1044C27.8174 28.9878 27.0616 28.1401 27.0598 27.1317C27.0598 26.8997 26.9676 26.6771 26.8035 26.513C26.6394 26.3489 26.4168 26.2567 26.1848 26.2567C25.9527 26.2567 25.7301 26.3489 25.566 26.513C25.4019 26.6771 25.3097 26.8997 25.3097 27.1317C25.3123 28.8155 26.4385 30.2905 28.0622 30.7362V31.6112C28.0622 31.8433 28.1544 32.0659 28.3185 32.23C28.4826 32.3941 28.7052 32.4863 28.9372 32.4863C29.1693 32.4863 29.3919 32.3941 29.556 32.23C29.7201 32.0659 29.8123 31.8433 29.8123 31.6112V30.7891C31.6863 30.3969 32.9599 28.6515 32.7631 26.7471C32.5656 24.8428 30.9612 23.3957 29.0466 23.3953C27.9494 23.3953 27.0598 22.5057 27.0598 21.4085C27.0598 20.3113 27.9494 19.4217 29.0466 19.4217C30.1438 19.4217 31.0334 20.3112 31.0334 21.4085C31.0334 21.6406 31.1256 21.8631 31.2897 22.0272C31.4538 22.1913 31.6764 22.2835 31.9085 22.2835C32.1405 22.2835 32.3631 22.1913 32.5272 22.0272C32.6913 21.8631 32.7835 21.6406 32.7835 21.4085C32.781 19.6404 31.5424 18.1154 29.8123 17.7506V16.9541C29.8123 16.7221 29.7201 16.4995 29.556 16.3354C29.3919 16.1713 29.1693 16.0791 28.9372 16.0791C28.7052 16.0791 28.4826 16.1713 28.3185 16.3354C28.1544 16.4995 28.0622 16.7221 28.0622 16.9541V17.804C26.2565 18.297 25.0944 20.0502 25.343 21.9054C25.5916 23.7606 27.1748 25.1453 29.0466 25.1449C30.1294 25.1449 31.0125 26.0119 31.0321 27.0941C31.0522 28.1764 30.2011 29.0753 29.1192 29.1147Z" fill="#EA7600"></path><path d="M16.3574 24.337C16.3574 31.3451 22.0385 37.0261 29.0465 37.0261C36.0545 37.0261 41.7356 31.3451 41.7356 24.337C41.7356 17.329 36.0545 11.6479 29.0465 11.6479C22.0418 11.6556 16.3656 17.3324 16.3574 24.337ZM29.0465 13.398C35.088 13.398 39.9855 18.2955 39.9855 24.337C39.9855 30.3786 35.088 35.276 29.0465 35.276C23.0049 35.276 18.1075 30.3786 18.1075 24.337C18.1144 18.2984 23.0079 13.4049 29.0465 13.398Z" fill="#EA7600"></path><path d="M46.0494 39.1836L39.1947 42.4223C38.7297 41.5574 38.0448 40.8305 37.2092 40.3148C36.3735 39.7991 35.4166 39.513 34.435 39.4852L28.1071 39.3113C27.1049 39.2827 26.1219 39.0289 25.2311 38.5687L24.5873 38.2351C22.9629 37.3885 21.1578 36.9473 19.326 36.9492C17.4942 36.9511 15.6901 37.3961 14.0675 38.2462L14.1076 36.7875C14.1108 36.6726 14.0913 36.5582 14.0503 36.4508C14.0093 36.3435 13.9475 36.2452 13.8685 36.1618C13.7895 36.0783 13.6949 36.0112 13.5899 35.9643C13.485 35.9174 13.3719 35.8916 13.257 35.8885L6.31805 35.6976C6.20318 35.6944 6.08881 35.7139 5.98147 35.755C5.87414 35.796 5.77594 35.8578 5.69249 35.9368C5.60905 36.0158 5.54199 36.1105 5.49514 36.2154C5.4483 36.3204 5.42259 36.4335 5.41949 36.5484L5.00034 51.7752C4.99714 51.8901 5.0166 52.0045 5.05763 52.1119C5.09866 52.2193 5.16044 52.3175 5.23944 52.401C5.31845 52.4845 5.41313 52.5516 5.51808 52.5985C5.62304 52.6454 5.7362 52.6712 5.85111 52.6743L12.7899 52.8653H12.8139C13.0419 52.8654 13.2609 52.7765 13.4243 52.6175C13.5878 52.4585 13.6827 52.242 13.6889 52.0141L13.7089 51.2856L15.5115 50.3204C16.2188 49.9397 17.0465 49.8491 17.8194 50.0679L28.584 53.0891C28.6028 53.0947 28.6215 53.0989 28.6409 53.1033C29.4189 53.266 30.2117 53.3477 31.0066 53.3472C32.69 53.3482 34.3538 52.9852 35.8839 52.2829C35.9215 52.2657 35.9578 52.2457 35.9924 52.223L51.6002 42.1276C51.7875 42.0064 51.9214 41.8182 51.9747 41.6016C52.0279 41.3849 51.9965 41.1561 51.8867 40.9619C50.7281 38.9059 48.1579 38.1227 46.0494 39.1836ZM6.77395 50.9489L7.14476 37.4711L12.334 37.6138L11.9632 51.0921L6.77395 50.9489ZM35.0955 50.7199C33.1946 51.5777 31.0716 51.8147 29.0283 51.3972L18.2928 48.3836C17.0848 48.0422 15.7914 48.1836 14.6857 48.7779L13.7645 49.2715L14.011 40.3103C15.4442 39.3571 17.1069 38.8059 18.8256 38.7142C20.5444 38.6225 22.2563 38.9937 23.7827 39.7891L24.4266 40.1227C25.5519 40.7037 26.7933 41.0244 28.0592 41.0611L34.3875 41.235C36.165 41.2862 37.6745 42.5517 38.0352 44.2933L28.6091 44.0331C28.1259 44.02 27.7238 44.401 27.7101 44.8839C27.7038 45.1159 27.7898 45.3409 27.9494 45.5095C28.1089 45.6781 28.3289 45.7764 28.5609 45.7829L38.9632 46.0691H38.9875C39.2154 46.069 39.4342 45.9799 39.5975 45.821C39.7607 45.662 39.8555 45.4457 39.8617 45.2179C39.8725 44.8376 39.8442 44.4572 39.7772 44.0827L46.8079 40.7606C46.8147 40.7577 46.8215 40.7543 46.8284 40.7508C47.3153 40.5044 47.866 40.4129 48.4065 40.4886C48.9469 40.5643 49.4512 40.8036 49.8517 41.1743L35.0955 50.7199ZM29.9217 9.18801V0.875048C29.9217 0.642971 29.8295 0.420399 29.6654 0.256296C29.5013 0.0921923 29.2787 0 29.0467 0C28.8146 0 28.592 0.0921923 28.4279 0.256296C28.2638 0.420399 28.1716 0.642971 28.1716 0.875048V9.18801C28.1716 9.42008 28.2638 9.64266 28.4279 9.80676C28.592 9.97086 28.8146 10.0631 29.0467 10.0631C29.2787 10.0631 29.5013 9.97086 29.6654 9.80676C29.8295 9.64266 29.9217 9.42008 29.9217 9.18801ZM36.4846 9.18801V5.25029C36.4846 5.01821 36.3924 4.79564 36.2283 4.63154C36.0642 4.46743 35.8416 4.37524 35.6095 4.37524C35.3775 4.37524 35.1549 4.46743 34.9908 4.63154C34.8267 4.79564 34.7345 5.01821 34.7345 5.25029V9.18801C34.7345 9.42008 34.8267 9.64266 34.9908 9.80676C35.1549 9.97086 35.3775 10.0631 35.6095 10.0631C35.8416 10.0631 36.0642 9.97086 36.2283 9.80676C36.3924 9.64266 36.4846 9.42008 36.4846 9.18801ZM23.3589 9.18801V5.25029C23.3589 5.01821 23.2667 4.79564 23.1026 4.63154C22.9385 4.46743 22.7159 4.37524 22.4838 4.37524C22.2517 4.37524 22.0292 4.46743 21.8651 4.63154C21.7009 4.79564 21.6088 5.01821 21.6088 5.25029V9.18801C21.6088 9.42008 21.7009 9.64266 21.8651 9.80676C22.0292 9.97086 22.2517 10.0631 22.4838 10.0631C22.7159 10.0631 22.9385 9.97086 23.1026 9.80676C23.2667 9.64266 23.3589 9.42008 23.3589 9.18801Z" fill="#1D2939"></path></svg>