<svg xmlns="http://www.w3.org/2000/svg" width="56" height="56" viewBox="0 0 56 56" fill="none"><path d="M21.9611 16.3078V16.8078H22.4611H25.538C25.895 16.8078 26.2374 16.9497 26.4899 17.2021C26.7423 17.4546 26.8842 17.797 26.8842 18.154C26.8842 18.511 26.7423 18.8534 26.4899 19.1059C26.2374 19.3583 25.895 19.5002 25.538 19.5002H22.4611H21.9611V20.0002V23.0771C21.9611 23.4341 21.8193 23.7765 21.5668 24.0289C21.3144 24.2814 20.972 24.4232 20.6149 24.4232C20.2579 24.4232 19.9155 24.2814 19.6631 24.0289C19.4106 23.7765 19.2688 23.4341 19.2688 23.0771V20.0002V19.5002H18.7688H15.6919C15.3348 19.5002 14.9924 19.3583 14.74 19.1059C14.4875 18.8534 14.3457 18.511 14.3457 18.154C14.3457 17.797 14.4875 17.4546 14.74 17.2021C14.9924 16.9497 15.3348 16.8078 15.6919 16.8078H18.7688H19.2688V16.3078V13.2309C19.2688 12.8739 19.4106 12.5315 19.6631 12.279C19.9155 12.0266 20.2579 11.8848 20.6149 11.8848C20.972 11.8848 21.3144 12.0266 21.5668 12.279C21.8193 12.5315 21.9611 12.8739 21.9611 13.2309V16.3078Z" fill="#EA7600" stroke="white"></path><path d="M45.2308 21.2308H37.2308V10.7692C37.2295 8.97432 36.5159 7.2533 35.2467 5.9841C33.9775 4.71491 32.2565 4.0013 30.4615 4H10.7692C8.97432 4.0013 7.2533 4.71491 5.9841 5.9841C4.71491 7.2533 4.0013 8.97432 4 10.7692V48.9231C4 50.6191 5.38092 52 7.07692 52H48.9231C50.6191 52 52 50.6191 52 48.9231V28C51.9987 26.2051 51.2851 24.4841 50.0159 23.2149C48.7467 21.9457 47.0257 21.2321 45.2308 21.2308ZM7.69231 10.7692C7.69231 9.07323 9.07323 7.69231 10.7692 7.69231H30.4615C32.1575 7.69231 33.5385 9.07323 33.5385 10.7692V48.3077H29.8462V35.3846C29.8462 33.0092 27.9138 31.0769 25.5385 31.0769H15.6923C13.3169 31.0769 11.3846 33.0092 11.3846 35.3846V48.3077H7.69231V10.7692ZM15.0769 48.3077V35.3846C15.0769 35.2214 15.1418 35.0649 15.2572 34.9495C15.3726 34.8341 15.5291 34.7692 15.6923 34.7692H25.5385C25.7017 34.7692 25.8582 34.8341 25.9736 34.9495C26.089 35.0649 26.1538 35.2214 26.1538 35.3846V48.3077H15.0769ZM48.3077 48.3077H37.2308V24.9231H45.2308C46.9268 24.9231 48.3077 26.304 48.3077 28V48.3077Z" fill="#1D2939" stroke="white" stroke-width="1.4"></path><path d="M42.769 38.4614C42.2794 38.4614 41.8098 38.6559 41.4636 39.0021C41.1174 39.3483 40.9229 39.8179 40.9229 40.3075V42.7691C40.9229 43.2587 41.1174 43.7283 41.4636 44.0745C41.8098 44.4207 42.2794 44.6152 42.769 44.6152C43.2586 44.6152 43.7282 44.4207 44.0744 44.0745C44.4207 43.7283 44.6152 43.2587 44.6152 42.7691V40.3075C44.6152 39.8179 44.4207 39.3483 44.0744 39.0021C43.7282 38.6559 43.2586 38.4614 42.769 38.4614ZM42.769 28.6152C42.2794 28.6152 41.8098 28.8097 41.4636 29.156C41.1174 29.5022 40.9229 29.9718 40.9229 30.4614V32.9229C40.9229 33.4126 41.1174 33.8821 41.4636 34.2284C41.8098 34.5746 42.2794 34.7691 42.769 34.7691C43.2586 34.7691 43.7282 34.5746 44.0744 34.2284C44.4207 33.8821 44.6152 33.4126 44.6152 32.9229V30.4614C44.6152 29.9718 44.4207 29.5022 44.0744 29.156C43.7282 28.8097 43.2586 28.6152 42.769 28.6152Z" fill="#EA7600" stroke="white" stroke-width="1.4"></path></svg>