<svg xmlns="http://www.w3.org/2000/svg" width="56" height="56" viewBox="0 0 56 56" fill="none"><path d="M42.2651 36.6533H14.0649C13.2995 36.6533 12.6792 37.2736 12.6792 38.039C12.6792 38.804 13.2995 39.4247 14.0649 39.4247H42.2651C43.0306 39.4247 43.6508 38.804 43.6508 38.039C43.6508 37.2736 43.0306 36.6533 42.2651 36.6533ZM36.3283 42.5901H18.5175C17.7521 42.5901 17.1318 43.2104 17.1318 43.9758C17.1318 44.7409 17.7521 45.3615 18.5175 45.3615H36.3283C37.0934 45.3615 37.714 44.7409 37.714 43.9758C37.714 43.2104 37.0934 42.5901 36.3283 42.5901Z" fill="#EA7600" stroke="white" stroke-width="0.8"></path><path d="M44.4912 6.96843H42.9085V5.38569C42.9085 4.62033 42.2882 4 41.5228 4C40.7578 4 40.1371 4.62033 40.1371 5.38569V6.96843H34.0033V5.38569C34.0033 4.62033 33.383 4 32.6176 4C31.8522 4 31.2319 4.62033 31.2319 5.38569V6.96843H25.098V5.38569C25.098 4.62033 24.4774 4 23.7123 4C22.9469 4 22.3266 4.62033 22.3266 5.38569V6.96843H16.1924V5.38569C16.1924 4.62033 15.5721 4 14.8067 4C14.0417 4 13.421 4.62033 13.421 5.38569V6.96843H11.8383C8.61915 6.96843 6 9.58749 6 12.8067V45.46C6 48.6792 8.61915 51.2983 11.8384 51.2983H44.4916C47.7109 51.2983 50.33 48.6792 50.33 45.4599V12.8068C50.33 9.58758 47.7109 6.96843 44.4912 6.96843ZM47.5585 45.4599C47.5585 47.1509 46.1826 48.5269 44.4916 48.5269H11.8383C10.1474 48.527 8.77139 47.151 8.77139 45.4599V12.8068C8.77139 11.1158 10.1474 9.73982 11.8384 9.73982H13.421V11.3227C13.421 12.088 14.0417 12.7083 14.8067 12.7083C15.5721 12.7083 16.1924 12.088 16.1924 11.3227V9.73982H22.3266V11.3226C22.3266 12.0879 22.9469 12.7083 23.7123 12.7083C24.4774 12.7083 25.098 12.0879 25.098 11.3226V9.73982H31.2319V11.3226C31.2319 12.0879 31.8522 12.7083 32.6176 12.7083C33.383 12.7083 34.0033 12.0879 34.0033 11.3226V9.73982H40.1371V11.3226C40.1371 12.0879 40.7578 12.7083 41.5228 12.7083C42.2882 12.7083 42.9085 12.0879 42.9085 11.3226V9.73982H44.4916C46.1826 9.73982 47.5586 11.1157 47.5586 12.8067L47.5585 45.4599Z" fill="#1D2939" stroke="white" stroke-width="0.8"></path><path d="M26.31 25.3241H30.0203C30.6882 25.3241 31.232 25.868 31.232 26.5359C31.232 27.2042 30.6882 27.7476 30.0203 27.7476H25.1966C24.4313 27.7476 23.8109 28.3679 23.8109 29.1333C23.8109 29.8987 24.4313 30.519 25.1966 30.519H26.7794V32.1018C26.7794 32.8672 27.3996 33.4875 28.165 33.4875C28.9305 33.4875 29.5507 32.8672 29.5507 32.1018V30.5191H30.0202C32.2164 30.5191 34.0033 28.7322 34.0033 26.536C34.0033 24.3398 32.2164 22.5528 30.0202 22.5528H26.3099C25.6415 22.5528 25.098 22.0094 25.098 21.3415C25.098 20.6731 25.6415 20.1297 26.3099 20.1297H31.1334C31.8988 20.1297 32.5191 19.5089 32.5191 18.744C32.5191 17.9786 31.8988 17.3583 31.1334 17.3583H29.5507V15.7756C29.5507 15.0102 28.9304 14.3899 28.165 14.3899C27.3997 14.3899 26.7794 15.0102 26.7794 15.7756V17.3583H26.3099C24.1133 17.3583 22.3267 19.1449 22.3267 21.3415C22.3267 23.5376 24.1133 25.3242 26.3099 25.3242L26.31 25.3241Z" fill="#EA7600" stroke="white" stroke-width="0.8"></path></svg>