<svg xmlns="http://www.w3.org/2000/svg" width="56" height="56" viewBox="0 0 56 56" fill="none"><path d="M35.059 26.5884C35.8387 26.5884 36.4708 27.2204 36.4708 28.0002C36.4708 28.7799 35.8387 29.4119 35.059 29.4119H33.6475C31.3107 29.4119 29.412 31.3121 29.412 33.6472C29.412 35.9866 31.3069 37.8824 33.6449 37.8824H44.9556C48.8509 37.8824 52.012 41.0473 52.012 44.9412C52.012 48.8389 48.849 52 44.9518 52H22.3532C21.5735 52 20.9414 51.3679 20.9414 50.5882C20.9414 49.8085 21.5735 49.1765 22.3532 49.1765H44.9518C47.29 49.1765 49.1884 47.2791 49.1884 44.9412C49.1884 42.6059 47.2907 40.706 44.9555 40.706H33.6448C29.7472 40.706 26.5884 37.5457 26.5884 33.6472C26.5884 29.7531 29.7509 26.5884 33.6475 26.5884H35.059Z" fill="#1D2939" stroke="white" stroke-width="0.8"></path><path d="M42.9866 28.4067C42.7384 28.6006 42.4325 28.7059 42.1176 28.7059C41.8026 28.7059 41.4968 28.6006 41.2486 28.4067C41.1128 28.2994 40.9788 28.19 40.8466 28.0784C40.5051 27.7914 40.1699 27.4972 39.8411 27.1959C38.8066 26.2495 37.7726 25.1931 36.8044 24.0484C33.9619 20.688 32.2352 17.2615 32.2352 13.8824C32.2352 8.42452 36.6596 4 42.1175 4C47.5755 4 51.9999 8.42452 51.9999 13.8824C51.9999 17.2615 50.2732 20.688 47.4307 24.0484C46.4625 25.1931 45.4285 26.2495 44.394 27.1959C44.0652 27.4972 43.7299 27.7914 43.3885 28.0784C43.2563 28.19 43.1223 28.2994 42.9866 28.4067ZM42.4882 25.1125C43.439 24.2427 44.3903 23.2707 45.275 22.225C47.7266 19.3267 49.1764 16.4497 49.1764 13.8824C49.1764 9.98395 46.0161 6.82365 42.1176 6.82365C38.2191 6.82365 35.0588 9.98395 35.0588 13.8824C35.0588 16.4497 36.5086 19.3268 38.9602 22.225C39.8449 23.2708 40.7962 24.2428 41.747 25.1125C41.8697 25.2247 41.9933 25.336 42.1177 25.4462C42.2421 25.3359 42.3656 25.2247 42.4882 25.1125ZM42.1175 18.1177C39.7785 18.1177 37.8823 16.2215 37.8823 13.8824C37.8823 11.5434 39.7785 9.64721 42.1175 9.64721C44.4566 9.64721 46.3528 11.5434 46.3528 13.8824C46.3528 16.2215 44.4566 18.1177 42.1175 18.1177ZM42.1175 15.2941C42.8973 15.2941 43.5293 14.6621 43.5293 13.8824C43.5293 13.1026 42.8973 12.4706 42.1175 12.4706C41.3378 12.4706 40.7058 13.1026 40.7058 13.8824C40.7058 14.6621 41.3378 15.2941 42.1175 15.2941ZM14.7513 51.7008C14.5031 51.8947 14.1972 52 13.8823 52C13.5674 52 13.2615 51.8947 13.0133 51.7008C12.8776 51.5935 12.7436 51.4841 12.6113 51.3725C12.2699 51.0855 11.9346 50.7913 11.6058 50.4899C10.5713 49.5436 9.53733 48.4872 8.56908 47.3425C5.72668 43.9821 4 40.5556 4 37.1765C4 31.7186 8.42443 27.2941 13.8824 27.2941C19.3403 27.2941 23.7647 31.7185 23.7647 37.1765C23.7647 40.5556 22.038 43.9821 19.1955 47.3425C18.2273 48.4872 17.1933 49.5436 16.1588 50.4899C15.83 50.7913 15.4947 51.0855 15.1533 51.3725C15.0211 51.4841 14.8871 51.5935 14.7513 51.7008ZM14.2529 48.4066C15.2038 47.5368 16.155 46.5648 17.0398 45.5191C19.4913 42.6208 20.9411 39.7438 20.9411 37.1765C20.9411 33.2781 17.7808 30.1178 13.8824 30.1178C9.98386 30.1178 6.82356 33.2781 6.82356 37.1765C6.82356 39.7438 8.2733 42.6209 10.725 45.5191C11.6097 46.5649 12.5609 47.5369 13.5118 48.4066C13.6344 48.5188 13.758 48.6301 13.8824 48.7403C14.0068 48.63 14.1303 48.5188 14.2529 48.4066ZM13.8824 41.4117C11.5433 41.4117 9.64711 39.5155 9.64711 37.1765C9.64711 34.8374 11.5433 32.9412 13.8824 32.9412C16.2214 32.9412 18.1176 34.8374 18.1176 37.1765C18.1176 39.5155 16.2214 41.4117 13.8824 41.4117ZM13.8824 38.5882C14.6621 38.5882 15.2941 37.9562 15.2941 37.1765C15.2941 36.3967 14.6621 35.7647 13.8824 35.7647C13.1026 35.7647 12.4706 36.3967 12.4706 37.1765C12.4706 37.9562 13.1026 38.5882 13.8824 38.5882Z" fill="#EA7600" stroke="white" stroke-width="0.8"></path></svg>