<svg xmlns="http://www.w3.org/2000/svg" width="56" height="56" viewBox="0 0 56 56" fill="none"><path d="M50.4993 30.4012C48.7737 28.9435 46.2194 29.1112 44.6934 30.7495L40.5603 35.1864C40.061 33.5812 38.6266 32.3849 36.8975 32.2353C37.6382 31.717 38.3333 31.1364 38.9753 30.4999C41.933 27.5689 43.562 23.6844 43.562 19.5622C43.562 11.0376 36.5545 4 27.9998 4C19.4676 4 12.5313 11.0181 12.5313 19.5622C12.5313 23.4214 13.9583 27.0816 16.5067 29.9055C15.8128 30.2576 15.1633 30.6912 14.5721 31.1971C13.8077 30.1147 12.5479 29.4058 11.125 29.4058H5.40625C4.62963 29.4058 4 30.0354 4 30.8121V50.5931C4 51.3697 4.62963 51.9993 5.40625 51.9993H11.1249C12.966 51.9993 14.5343 50.8134 15.1088 49.1656C15.1864 49.1792 15.2649 49.1863 15.3436 49.1868H36.5307C39.6125 49.1868 42.5564 47.7148 44.4098 45.2439L51.1568 36.1542C52.4969 34.3679 52.2118 31.8478 50.4993 30.4012ZM12.5312 47.7807C12.5312 48.5561 11.9003 49.1869 11.1249 49.1869H6.8125V32.2184H11.1249C11.9003 32.2184 12.5312 32.8493 12.5312 33.6247V47.7807ZM15.3436 19.5623C15.3436 12.532 21.0211 6.8125 27.9997 6.8125C35.03 6.8125 40.7495 12.532 40.7495 19.5623C40.7495 26.2751 35.4571 31.783 28.7968 32.193C28.5501 32.146 28.3206 32.0337 28.132 31.8679L27.4716 31.2866C25.2318 29.3156 22.3046 28.5375 19.5204 28.948C16.8587 26.5436 15.3436 23.1578 15.3436 19.5623ZM48.9027 34.4723L42.1557 43.5621C40.8349 45.3232 38.7322 46.3746 36.5308 46.3746H15.3436V34.2604L16.3235 33.398C18.9716 31.0676 22.9656 31.0676 25.6134 33.398C26.0916 33.8187 27.3881 35.0308 27.9997 35.0308H36.5308C37.3062 35.0308 37.9371 35.6617 37.9371 36.4371C37.9371 37.2125 37.3062 37.8433 36.5308 37.8433H26.4429C25.6663 37.8433 25.0367 38.473 25.0367 39.2496C25.0367 40.0262 25.6663 40.6558 26.4429 40.6558H37.4734C38.6399 40.6558 39.7651 40.1663 40.5602 39.3126L46.7513 32.6665C47.2545 32.1263 48.0633 32.0782 48.6243 32.5002C48.7724 32.6112 48.8971 32.7503 48.9913 32.9096C49.0855 33.0689 49.1473 33.2452 49.1732 33.4284C49.1991 33.6116 49.1885 33.7982 49.1421 33.9773C49.0957 34.1564 49.0143 34.3246 48.9027 34.4723Z" fill="#1D2939" stroke="white" stroke-width="0.5"></path><path d="M27.9999 18.1561C27.2245 18.1561 26.5937 17.5252 26.5937 16.7498C26.5937 16.1605 26.9654 15.6291 27.5186 15.4277C28.2408 15.1647 29.0818 15.5214 29.8254 16.4069C30.3249 17.0015 31.212 17.0788 31.8066 16.5793C32.4013 16.0798 32.4785 15.1927 31.979 14.5981C31.2188 13.6928 30.334 13.0706 29.4061 12.7582V11.125C29.4061 10.3484 28.7764 9.71875 27.9998 9.71875C27.2232 9.71875 26.5936 10.3484 26.5936 11.125V12.7724C26.581 12.7768 26.5684 12.7806 26.556 12.7852C24.8963 13.3897 23.7812 14.9831 23.7812 16.7499C23.7812 19.0761 25.6738 20.9686 27.9999 20.9686C28.7753 20.9686 29.4062 21.5994 29.4062 22.3748C29.4065 22.6514 29.3252 22.9219 29.1724 23.1525C29.0197 23.383 28.8023 23.5634 28.5475 23.6709C27.9177 23.9375 27.1641 23.71 26.4795 23.0466C25.9217 22.5063 25.0314 22.5203 24.491 23.078C23.9506 23.6359 23.9647 24.5261 24.5224 25.0665C25.1573 25.6816 25.8632 26.1162 26.5937 26.3615V27.9997C26.5937 28.7764 27.2233 29.406 27.9999 29.406C28.7765 29.406 29.4062 28.7764 29.4062 27.9997V26.3525C29.4864 26.3242 29.5659 26.2936 29.6443 26.2606C30.4082 25.9382 31.0599 25.3974 31.5179 24.7062C31.9758 24.015 32.2196 23.204 32.2187 22.3748C32.2186 20.0486 30.3261 18.1561 27.9999 18.1561Z" fill="#EA7600" stroke="white" stroke-width="0.5"></path></svg>