<svg xmlns="http://www.w3.org/2000/svg" width="56" height="56" viewBox="0 0 56 56" fill="none"><path d="M42.9274 33.6587C41.5253 33.668 40.1476 34.027 38.9193 34.7032C37.7515 32.8544 36.1419 31.3254 34.2356 30.254C32.3294 29.1826 30.1864 28.6025 28 28.5662C25.8136 28.6025 23.6706 29.1826 21.7644 30.254C19.8581 31.3254 18.2485 32.8544 17.0807 34.7032C15.8524 34.027 14.4747 33.668 13.0726 33.6587C10.5565 33.7815 8.19118 34.8947 6.49299 36.7553C4.79481 38.6159 3.90169 41.0728 4.0086 43.5896C4.0086 44.0138 4.17711 44.4206 4.47706 44.7205C4.77701 45.0205 5.18384 45.189 5.60803 45.189C6.03222 45.189 6.43904 45.0205 6.73899 44.7205C7.03895 44.4206 7.20746 44.0138 7.20746 43.5896C7.10263 41.9215 7.65955 40.2793 8.75748 39.0191C9.8554 37.7589 11.4058 36.9823 13.0726 36.8576C13.9564 36.8644 14.8242 37.0949 15.5948 37.5277C14.8411 39.4274 14.4551 41.453 14.4577 43.4968C14.4577 43.921 14.6262 44.3278 14.9261 44.6278C15.2261 44.9277 15.6329 45.0962 16.0571 45.0962C16.4813 45.0962 16.8881 44.9277 17.188 44.6278C17.488 44.3278 17.6565 43.921 17.6565 43.4968C17.6565 37.0271 22.2948 31.765 28 31.765C33.7052 31.765 38.3435 37.0271 38.3435 43.4968C38.3435 43.921 38.512 44.3278 38.812 44.6278C39.1119 44.9277 39.5187 45.0962 39.9429 45.0962C40.3671 45.0962 40.7739 44.9277 41.0739 44.6278C41.3738 44.3278 41.5423 43.921 41.5423 43.4968C41.5449 41.453 41.1589 39.4274 40.4052 37.5277C41.1758 37.0949 42.0436 36.8644 42.9274 36.8576C44.5942 36.9823 46.1446 37.7589 47.2425 39.0191C48.3404 40.2793 48.8974 41.9215 48.7925 43.5896C48.7925 44.0138 48.9611 44.4206 49.261 44.7205C49.561 45.0205 49.9678 45.189 50.392 45.189C50.8162 45.189 51.223 45.0205 51.5229 44.7205C51.8229 44.4206 51.9914 44.0138 51.9914 43.5896C52.0983 41.0728 51.2052 38.6159 49.507 36.7553C47.8088 34.8947 45.4435 33.7815 42.9274 33.6587Z" fill="#1D2939" stroke="white" stroke-width="0.8"></path><path d="M27.7871 25.8055C29.3502 25.8055 30.8782 25.342 32.1779 24.4736C33.4775 23.6051 34.4904 22.3708 35.0885 20.9267C35.6866 19.4825 35.843 17.8935 35.5379 16.3604C35.2329 14.8274 34.4801 13.4193 33.3747 12.3141C32.2693 11.2089 30.861 10.4564 29.3279 10.1517C27.7948 9.84691 26.2058 10.0036 24.7618 10.602C23.3178 11.2004 22.0836 12.2136 21.2155 13.5134C20.3473 14.8132 19.8841 16.3413 19.8844 17.9044C19.8869 19.9994 20.7204 22.0078 22.2019 23.4891C23.6835 24.9703 25.6921 25.8034 27.7871 25.8055ZM27.7871 13.2005C28.7175 13.2005 29.6269 13.4763 30.4005 13.9932C31.1741 14.5101 31.777 15.2447 32.133 16.1043C32.489 16.9638 32.5822 17.9096 32.4007 18.8221C32.2192 19.7345 31.7712 20.5727 31.1133 21.2305C30.4555 21.8884 29.6173 22.3364 28.7048 22.5179C27.7924 22.6994 26.8466 22.6062 25.987 22.2502C25.1275 21.8942 24.3929 21.2913 23.876 20.5177C23.3591 19.7442 23.0832 18.8347 23.0832 17.9044C23.0849 16.6573 23.5811 15.4619 24.4628 14.5801C25.3446 13.6983 26.5401 13.2021 27.7871 13.2005ZM12.8581 30.4503C14.0602 30.4503 15.2353 30.0938 16.2348 29.426C17.2342 28.7581 18.0133 27.8089 18.4733 26.6983C18.9333 25.5878 19.0536 24.3657 18.8191 23.1867C18.5846 22.0077 18.0058 20.9248 17.1558 20.0748C16.3058 19.2248 15.2228 18.6459 14.0438 18.4114C12.8648 18.1769 11.6428 18.2973 10.5322 18.7573C9.42164 19.2173 8.47241 19.9963 7.80457 20.9958C7.13673 21.9953 6.78027 23.1704 6.78027 24.3724C6.78027 25.9844 7.42061 27.5303 8.56043 28.6701C9.70024 29.8099 11.2462 30.4503 12.8581 30.4503ZM12.8581 21.4935C13.4275 21.4935 13.9841 21.6623 14.4576 21.9787C14.931 22.295 15.3 22.7447 15.5179 23.2707C15.7358 23.7968 15.7928 24.3756 15.6817 24.9341C15.5707 25.4926 15.2965 26.0056 14.8938 26.4082C14.4912 26.8108 13.9782 27.085 13.4198 27.1961C12.8613 27.3072 12.2824 27.2502 11.7564 27.0323C11.2303 26.8144 10.7807 26.4454 10.4643 25.9719C10.148 25.4985 9.97913 24.9419 9.97913 24.3724C9.97913 23.6089 10.2824 22.8766 10.8224 22.3367C11.3623 21.7968 12.0945 21.4935 12.8581 21.4935ZM42.7146 30.4503C43.9167 30.4503 45.0918 30.0938 46.0912 29.426C47.0907 28.7581 47.8697 27.8089 48.3298 26.6983C48.7898 25.5878 48.9101 24.3657 48.6756 23.1867C48.4411 22.0077 47.8623 20.9248 47.0123 20.0748C46.1623 19.2248 45.0793 18.6459 43.9003 18.4114C42.7213 18.1769 41.4993 18.2973 40.3887 18.7573C39.2781 19.2173 38.3289 19.9963 37.6611 20.9958C36.9932 21.9953 36.6368 23.1704 36.6368 24.3724C36.6368 25.9844 37.2771 27.5303 38.4169 28.6701C39.5567 29.8099 41.1026 30.4503 42.7146 30.4503ZM42.7146 21.4935C43.284 21.4935 43.8406 21.6623 44.3141 21.9787C44.7875 22.295 45.1565 22.7447 45.3744 23.2707C45.5923 23.7968 45.6493 24.3756 45.5382 24.9341C45.4272 25.4926 45.153 26.0056 44.7503 26.4082C44.3477 26.8108 43.8347 27.085 43.2762 27.1961C42.7178 27.3072 42.1389 27.2502 41.6129 27.0323C41.0868 26.8144 40.6372 26.4454 40.3208 25.9719C40.0045 25.4985 39.8356 24.9419 39.8356 24.3724C39.8356 23.6089 40.1389 22.8766 40.6788 22.3367C41.2188 21.7968 41.951 21.4935 42.7146 21.4935Z" fill="#EA7600" stroke="white" stroke-width="0.8"></path></svg>