<svg xmlns="http://www.w3.org/2000/svg" width="56" height="56" viewBox="0 0 56 56" fill="none"><path d="M22.1908 6C20.4774 6 18.835 6.68047 17.6248 7.89289L11.8907 13.6225C10.6797 14.8344 9.99967 16.4776 10 18.1908V44.7887C10 47.8364 12.4936 50.33 15.5413 50.33H39.9228C42.9704 50.33 45.464 47.8364 45.464 44.7887V11.5413C45.464 8.49356 42.9704 6 39.9228 6H22.1908ZM22.1908 8.2165H39.9228C41.7713 8.2165 43.2475 9.69269 43.2475 11.5413V44.7887C43.2475 46.6373 41.7713 48.1135 39.9228 48.1135H15.5413C13.6927 48.1135 12.2165 46.6373 12.2165 44.7887V18.1908C12.2165 17.0648 12.662 15.9875 13.4577 15.1896L19.1896 9.45996C19.9875 8.6598 21.0648 8.2165 22.1908 8.2165Z" fill="#1D2939" stroke="white" stroke-width="0.6"></path><path d="M18.8661 30.3814C17.6559 30.3814 16.6496 31.3877 16.6496 32.5979C16.6496 33.8081 17.6559 34.8144 18.8661 34.8144C20.0763 34.8144 21.0826 33.8081 21.0826 32.5979C21.0826 31.3877 20.0763 30.3814 18.8661 30.3814ZM23.6227 32.9215L16.9732 39.571C16.7651 39.7791 16.6482 40.0614 16.6482 40.3557C16.6482 40.65 16.7651 40.9322 16.9732 41.1403C17.1813 41.3484 17.4635 41.4653 17.7578 41.4653C18.0521 41.4653 18.3344 41.3484 18.5425 41.1403L25.192 34.4908C25.4001 34.2827 25.517 34.0005 25.517 33.7062C25.517 33.4119 25.4001 33.1296 25.192 32.9215C24.9839 32.7134 24.7016 32.5965 24.4073 32.5965C24.113 32.5965 23.8308 32.7134 23.6227 32.9215ZM24.4073 38.1392C23.1971 38.1392 22.1908 39.1455 22.1908 40.3557C22.1908 41.5659 23.1971 42.5722 24.4073 42.5722C25.6176 42.5722 26.6238 41.5659 26.6238 40.3557C26.6238 39.1455 25.6176 38.1392 24.4073 38.1392ZM34.3262 28.1649C34.042 28.1791 33.7741 28.3022 33.5781 28.5085C33.3821 28.7148 33.273 28.9886 33.2733 29.2732V30.3814C31.4514 30.3814 29.9486 31.8842 29.9486 33.7062C29.9486 35.5281 31.4514 37.0309 33.2733 37.0309H35.4898C36.1238 37.0309 36.5981 37.5052 36.5981 38.1392C36.5981 38.7731 36.1238 39.2474 35.4898 39.2474H33.2733C33.1268 39.2511 32.9811 39.2249 32.845 39.1705C32.7088 39.1161 32.5852 39.0346 32.4816 38.9309C32.3779 38.8273 32.2964 38.7037 32.242 38.5676C32.1876 38.4314 32.1614 38.2857 32.1651 38.1392C32.1651 37.8452 32.0483 37.5633 31.8405 37.3555C31.6327 37.1477 31.3508 37.0309 31.0568 37.0309C30.7629 37.0309 30.481 37.1477 30.2732 37.3555C30.0654 37.5633 29.9486 37.8452 29.9486 38.1392C29.9486 39.9611 31.4514 41.4639 33.2733 41.4639V42.5722C33.2733 42.8661 33.3901 43.148 33.5979 43.3558C33.8058 43.5637 34.0877 43.6804 34.3816 43.6804C34.6755 43.6804 34.9574 43.5637 35.1652 43.3558C35.3731 43.148 35.4898 42.8661 35.4898 42.5722V41.4639C37.3118 41.4639 38.8146 39.9611 38.8146 38.1392C38.8146 36.3172 37.3118 34.8144 35.4898 34.8144H33.2733C32.6394 34.8144 32.1651 34.3401 32.1651 33.7062C32.1651 33.0722 32.6394 32.5979 33.2733 32.5979H35.4898C36.1238 32.5979 36.5981 33.0722 36.5981 33.7062C36.5981 34.0001 36.7149 34.282 36.9227 34.4898C37.1305 34.6977 37.4124 34.8144 37.7063 34.8144C38.0003 34.8144 38.2822 34.6977 38.49 34.4898C38.6978 34.282 38.8146 34.0001 38.8146 33.7062C38.8146 31.8842 37.3118 30.3814 35.4898 30.3814V29.2732C35.4898 28.9792 35.3731 28.6973 35.1652 28.4895C34.9574 28.2817 34.6755 28.1649 34.3816 28.1649H34.3262ZM17.7578 21.5154C17.4639 21.5154 17.182 21.6322 16.9742 21.84C16.7664 22.0478 16.6496 22.3297 16.6496 22.6237C16.6496 22.9176 16.7664 23.1995 16.9742 23.4073C17.182 23.6152 17.4639 23.7319 17.7578 23.7319H37.7063C38.0003 23.7319 38.2822 23.6152 38.49 23.4073C38.6978 23.1995 38.8146 22.9176 38.8146 22.6237C38.8146 22.3297 38.6978 22.0478 38.49 21.84C38.2822 21.6322 38.0003 21.5154 37.7063 21.5154H17.7578ZM17.7578 17.0824C17.4639 17.0824 17.182 17.1992 16.9742 17.407C16.7664 17.6149 16.6496 17.8967 16.6496 18.1907C16.6496 18.4846 16.7664 18.7665 16.9742 18.9743C17.182 19.1822 17.4639 19.2989 17.7578 19.2989H37.7063C38.0003 19.2989 38.2822 19.1822 38.49 18.9743C38.6978 18.7665 38.8146 18.4846 38.8146 18.1907C38.8146 17.8967 38.6978 17.6149 38.49 17.407C38.2822 17.1992 38.0003 17.0824 37.7063 17.0824H17.7578ZM24.4073 12.6494C24.1134 12.6494 23.8315 12.7662 23.6237 12.974C23.4159 13.1819 23.2991 13.4637 23.2991 13.7577C23.2991 14.0516 23.4159 14.3335 23.6237 14.5413C23.8315 14.7492 24.1134 14.8659 24.4073 14.8659H31.0568C31.3508 14.8659 31.6327 14.7492 31.8405 14.5413C32.0483 14.3335 32.1651 14.0516 32.1651 13.7577C32.1651 13.4637 32.0483 13.1819 31.8405 12.974C31.6327 12.7662 31.3508 12.6494 31.0568 12.6494H24.4073Z" fill="#EA7600" stroke="white" stroke-width="0.6"></path></svg>