<svg xmlns="http://www.w3.org/2000/svg" width="56" height="56" viewBox="0 0 56 56" fill="none"><path d="M40.3344 6.00002H19.6989C18.7815 5.99766 17.8756 6.2033 17.0492 6.6015C16.2227 6.99969 15.4974 7.58007 14.9276 8.29899L10.3307 14.07C9.47101 15.151 9.00204 16.4909 9 17.872V44.2279C9.00179 45.8458 9.64526 47.3968 10.7892 48.5408C11.9332 49.6847 13.4842 50.3282 15.1021 50.33H40.3333C41.9509 50.3279 43.5017 49.6843 44.6454 48.5404C45.7891 47.3964 46.4324 45.8456 46.4342 44.2279V12.101C46.4342 8.73694 43.6995 6.00002 40.3344 6.00002ZM19.0279 48.0783L19.2755 47.7372C19.6324 47.2463 20.2089 46.9525 20.8168 46.9525H35.4606C36.0686 46.9525 36.645 47.2452 37.003 47.7372L37.2507 48.0783H19.0279ZM44.1814 44.2279C44.1802 45.2486 43.7743 46.2271 43.0527 46.9489C42.3312 47.6707 41.3528 48.0768 40.3321 48.0783H40.0338L38.8224 46.4132C38.4363 45.8834 37.9306 45.4523 37.3464 45.1547C36.7623 44.8572 36.1162 44.7017 35.4606 44.7008H20.818C20.1622 44.7015 19.5159 44.8569 18.9315 45.1545C18.3472 45.452 17.8413 45.8833 17.4551 46.4132L16.2448 48.0783H15.1021C14.0812 48.0771 13.1026 47.6711 12.3807 46.9493C11.6589 46.2274 11.2529 45.2488 11.2517 44.2279V17.872C11.2517 17.004 11.55 16.1529 12.0916 15.474L16.6906 9.70178C17.0501 9.24848 17.5077 8.88252 18.0289 8.63137C18.5501 8.38022 19.1214 8.25042 19.7 8.2517H40.3344C41.3551 8.25289 42.3337 8.65898 43.0553 9.38084C43.777 10.1027 44.1828 11.0814 44.1837 12.1021L44.1814 44.2279ZM41.5087 17.3992C41.5087 17.6978 41.39 17.9841 41.1789 18.1952C40.9678 18.4064 40.6814 18.525 40.3828 18.525H29.2651C28.9665 18.525 28.6802 18.4064 28.469 18.1952C28.2579 17.9841 28.1393 17.6978 28.1393 17.3992C28.1393 17.1006 28.2579 16.8142 28.469 16.6031C28.6802 16.3919 28.9665 16.2733 29.2651 16.2733H40.3828C40.6814 16.2733 40.9678 16.3919 41.1789 16.6031C41.39 16.8142 41.5087 17.1006 41.5087 17.3992ZM41.5087 23.0284C41.5087 23.327 41.39 23.6133 41.1789 23.8245C40.9678 24.0356 40.6814 24.1542 40.3828 24.1542H29.2651C28.9665 24.1542 28.6802 24.0356 28.469 23.8245C28.2579 23.6133 28.1393 23.327 28.1393 23.0284C28.1393 22.7298 28.2579 22.4434 28.469 22.2323C28.6802 22.0211 28.9665 21.9025 29.2651 21.9025H40.3828C40.6814 21.9025 40.9678 22.0211 41.1789 22.2323C41.39 22.4434 41.5087 22.7298 41.5087 23.0284ZM41.5087 28.6576C41.5087 28.9562 41.39 29.2425 41.1789 29.4537C40.9678 29.6648 40.6814 29.7834 40.3828 29.7834H15.755C15.4565 29.7834 15.1701 29.6648 14.959 29.4537C14.7478 29.2425 14.6292 28.9562 14.6292 28.6576C14.6292 28.359 14.7478 28.0726 14.959 27.8615C15.1701 27.6503 15.4565 27.5317 15.755 27.5317H40.3828C40.6814 27.5317 40.9678 27.6503 41.1789 27.8615C41.39 28.0726 41.5087 28.359 41.5087 28.6576ZM41.5087 34.2868C41.5087 34.5854 41.39 34.8717 41.1789 35.0829C40.9678 35.294 40.6814 35.4126 40.3828 35.4126H15.755C15.4565 35.4126 15.1701 35.294 14.959 35.0829C14.7478 34.8717 14.6292 34.5854 14.6292 34.2868C14.6292 33.9882 14.7478 33.7018 14.959 33.4907C15.1701 33.2795 15.4565 33.1609 15.755 33.1609H40.3828C40.6814 33.1609 40.9678 33.2795 41.1789 33.4907C41.39 33.7018 41.5087 33.9882 41.5087 34.2868ZM41.5087 39.916C41.5087 40.2146 41.39 40.5009 41.1789 40.7121C40.9678 40.9232 40.6814 41.0418 40.3828 41.0418H15.755C15.4565 41.0418 15.1701 40.9232 14.959 40.7121C14.7478 40.5009 14.6292 40.2146 14.6292 39.916C14.6292 39.6174 14.7478 39.331 14.959 39.1199C15.1701 38.9087 15.4565 38.7901 15.755 38.7901H40.3828C40.6814 38.7901 40.9678 38.9087 41.1789 39.1199C41.39 39.331 41.5087 39.6174 41.5087 39.916ZM17.5924 24.1002C17.3579 23.9154 17.2064 23.6452 17.1711 23.3487C17.1359 23.0523 17.2198 22.7541 17.4044 22.5195L22.2827 16.3274C22.3729 16.2077 22.486 16.1072 22.6156 16.0319C22.7451 15.9565 22.8883 15.9078 23.037 15.8885C23.1856 15.8692 23.3365 15.8798 23.481 15.9196C23.6254 15.9595 23.7605 16.0277 23.8782 16.1204C23.996 16.2131 24.094 16.3284 24.1666 16.4595C24.2392 16.5906 24.2849 16.7349 24.3011 16.8838C24.3172 17.0328 24.3034 17.1835 24.2605 17.3271C24.2176 17.4707 24.1465 17.6043 24.0514 17.72L19.1731 23.9121C19.0818 24.0285 18.9685 24.1257 18.8395 24.1981C18.7106 24.2706 18.5686 24.3169 18.4218 24.3343C18.2749 24.3518 18.1261 24.3401 17.9838 24.2999C17.8414 24.2597 17.7084 24.1919 17.5924 24.1002ZM17.3853 16.3206C17.3853 16.0065 17.51 15.7052 17.7322 15.4831C17.9543 15.261 18.2555 15.1362 18.5696 15.1362C18.8838 15.1362 19.185 15.261 19.4071 15.4831C19.6292 15.7052 19.754 16.0065 19.754 16.3206C19.754 16.6347 19.6292 16.936 19.4071 17.1581C19.185 17.3802 18.8838 17.505 18.5696 17.505C18.2555 17.505 17.9543 17.3802 17.7322 17.1581C17.51 16.936 17.3853 16.6347 17.3853 16.3206ZM24.3993 23.2164C24.3993 23.5306 24.2744 23.832 24.0522 24.0543C23.83 24.2765 23.5286 24.4013 23.2143 24.4013C22.9 24.4013 22.5986 24.2765 22.3764 24.0543C22.1542 23.832 22.0294 23.5306 22.0294 23.2164C22.0294 22.9023 22.1541 22.601 22.3763 22.3789C22.5984 22.1568 22.8996 22.032 23.2137 22.032C23.5279 22.032 23.8291 22.1568 24.0512 22.3789C24.2733 22.601 24.3993 22.9023 24.3993 23.2164Z" fill="#1D2939" stroke="white" stroke-width="0.4"></path><path d="M41.5086 17.3992C41.5086 17.6978 41.39 17.9841 41.1788 18.1953C40.9677 18.4064 40.6813 18.525 40.3828 18.525H29.2651C28.9665 18.525 28.6801 18.4064 28.469 18.1953C28.2579 17.9841 28.1392 17.6978 28.1392 17.3992C28.1392 17.1006 28.2579 16.8142 28.469 16.6031C28.6801 16.3919 28.9665 16.2733 29.2651 16.2733H40.3828C40.6813 16.2733 40.9677 16.3919 41.1788 16.6031C41.39 16.8142 41.5086 17.1006 41.5086 17.3992ZM41.5086 23.0284C41.5086 23.327 41.39 23.6133 41.1788 23.8245C40.9677 24.0356 40.6813 24.1542 40.3828 24.1542H29.2651C28.9665 24.1542 28.6801 24.0356 28.469 23.8245C28.2579 23.6133 28.1392 23.327 28.1392 23.0284C28.1392 22.7298 28.2579 22.4434 28.469 22.2323C28.6801 22.0211 28.9665 21.9025 29.2651 21.9025H40.3828C40.6813 21.9025 40.9677 22.0211 41.1788 22.2323C41.39 22.4434 41.5086 22.7298 41.5086 23.0284ZM41.5086 28.6576C41.5086 28.9562 41.39 29.2425 41.1788 29.4537C40.9677 29.6648 40.6813 29.7834 40.3828 29.7834H15.755C15.4564 29.7834 15.17 29.6648 14.9589 29.4537C14.7478 29.2425 14.6292 28.9562 14.6292 28.6576C14.6292 28.359 14.7478 28.0726 14.9589 27.8615C15.17 27.6504 15.4564 27.5317 15.755 27.5317H40.3828C40.6813 27.5317 40.9677 27.6504 41.1788 27.8615C41.39 28.0726 41.5086 28.359 41.5086 28.6576ZM41.5086 34.2868C41.5086 34.5854 41.39 34.8717 41.1788 35.0829C40.9677 35.294 40.6813 35.4126 40.3828 35.4126H15.755C15.4564 35.4126 15.17 35.294 14.9589 35.0829C14.7478 34.8717 14.6292 34.5854 14.6292 34.2868C14.6292 33.9882 14.7478 33.7018 14.9589 33.4907C15.17 33.2796 15.4564 33.1609 15.755 33.1609H40.3828C40.6813 33.1609 40.9677 33.2796 41.1788 33.4907C41.39 33.7018 41.5086 33.9882 41.5086 34.2868ZM41.5086 39.916C41.5086 40.2146 41.39 40.5009 41.1788 40.7121C40.9677 40.9232 40.6813 41.0418 40.3828 41.0418H15.755C15.4564 41.0418 15.17 40.9232 14.9589 40.7121C14.7478 40.5009 14.6292 40.2146 14.6292 39.916C14.6292 39.6174 14.7478 39.331 14.9589 39.1199C15.17 38.9088 15.4564 38.7901 15.755 38.7901H40.3828C40.6813 38.7901 40.9677 38.9088 41.1788 39.1199C41.39 39.331 41.5086 39.6174 41.5086 39.916ZM17.5924 24.1002C17.3579 23.9155 17.2063 23.6452 17.1711 23.3488C17.1358 23.0523 17.2197 22.7541 17.4043 22.5195L22.2826 16.3274C22.3728 16.2077 22.486 16.1072 22.6155 16.0319C22.745 15.9565 22.8883 15.9078 23.0369 15.8885C23.1855 15.8692 23.3365 15.8798 23.4809 15.9196C23.6254 15.9595 23.7605 16.0277 23.8782 16.1204C23.9959 16.2131 24.094 16.3284 24.1666 16.4595C24.2392 16.5906 24.2849 16.7349 24.301 16.8838C24.3171 17.0328 24.3033 17.1835 24.2605 17.3271C24.2176 17.4707 24.1465 17.6043 24.0513 17.72L19.173 23.9122C19.0818 24.0285 18.9684 24.1257 18.8395 24.1982C18.7106 24.2706 18.5686 24.3169 18.4217 24.3344C18.2749 24.3518 18.126 24.3401 17.9837 24.2999C17.8414 24.2598 17.7084 24.1919 17.5924 24.1002ZM17.3852 16.3206C17.3852 16.0065 17.51 15.7052 17.7321 15.4831C17.9542 15.261 18.2555 15.1362 18.5696 15.1362C18.8837 15.1362 19.185 15.261 19.4071 15.4831C19.6292 15.7052 19.754 16.0065 19.754 16.3206C19.754 16.6347 19.6292 16.936 19.4071 17.1581C19.185 17.3802 18.8837 17.505 18.5696 17.505C18.2555 17.505 17.9542 17.3802 17.7321 17.1581C17.51 16.936 17.3852 16.6347 17.3852 16.3206ZM24.3992 23.2164C24.3992 23.5307 24.2744 23.8321 24.0521 24.0543C23.8299 24.2765 23.5285 24.4013 23.2142 24.4013C22.9 24.4013 22.5986 24.2765 22.3764 24.0543C22.1541 23.8321 22.0293 23.5307 22.0293 23.2164C22.0293 22.9023 22.1541 22.601 22.3762 22.3789C22.5983 22.1568 22.8996 22.032 23.2137 22.032C23.5278 22.032 23.8291 22.1568 24.0512 22.3789C24.2733 22.601 24.3992 22.9023 24.3992 23.2164Z" fill="#EA7600" stroke="white" stroke-width="0.4"></path></svg>