<svg xmlns="http://www.w3.org/2000/svg" width="56" height="56" viewBox="0 0 56 56" fill="none"><path d="M51.1429 45.7021H48.9511V16.8164C48.9511 16.589 48.8608 16.371 48.7001 16.2103C48.5393 16.0495 48.3213 15.9592 48.094 15.9592H42.3777C42.1504 15.9592 41.9324 16.0495 41.7716 16.2103C41.6109 16.371 41.5206 16.589 41.5206 16.8164V45.7021H37.4603V23.9487C37.4603 23.7213 37.37 23.5033 37.2092 23.3426C37.0485 23.1818 36.8305 23.0915 36.6031 23.0915H30.8886C30.6612 23.0915 30.4432 23.1818 30.2825 23.3426C30.1217 23.5033 30.0314 23.7213 30.0314 23.9487V45.7029H25.9686V29.3067C25.9686 29.0793 25.8783 28.8613 25.7175 28.7006C25.5568 28.5398 25.3388 28.4495 25.1114 28.4495H19.396C19.1687 28.4495 18.9507 28.5398 18.7899 28.7006C18.6292 28.8613 18.5389 29.0793 18.5389 29.3067V45.7012H14.4786V35.0727C14.4786 34.8453 14.3883 34.6273 14.2275 34.4666C14.0668 34.3058 13.8488 34.2155 13.6214 34.2155H7.906C7.67867 34.2155 7.46065 34.3058 7.29991 34.4666C7.13916 34.6273 7.04886 34.8453 7.04886 35.0727V45.7012H4.85714C4.62981 45.7012 4.4118 45.7915 4.25105 45.9523C4.09031 46.113 4 46.331 4 46.5584C4 46.7857 4.09031 47.0037 4.25105 47.1645C4.4118 47.3252 4.62981 47.4155 4.85714 47.4155C6.72314 47.4138 51.1429 47.4155 51.1429 47.4155C51.3702 47.4155 51.5882 47.3252 51.749 47.1645C51.9097 47.0037 52 46.7857 52 46.5584C52 46.331 51.9097 46.113 51.749 45.9523C51.5882 45.7915 51.3702 45.7021 51.1429 45.7021ZM8.76314 45.7021V35.9307H12.7651V45.7021H8.76314ZM20.254 45.7021V30.1647H24.2551V45.7021H20.254ZM31.7449 45.7021V24.8058H35.746V45.7029L31.7449 45.7021ZM43.2349 45.7021V17.6735H47.2369V45.7021H43.2349Z" fill="#1D2939"></path><path d="M14.9844 25.158C25.2058 24.3163 32.1204 17.3331 35.2952 13.2463L35.0681 14.9871C35.0398 15.2119 35.1017 15.4387 35.2402 15.618C35.3786 15.7973 35.5825 15.9145 35.8071 15.944C36.0317 15.9734 36.2589 15.9127 36.4389 15.7752C36.6189 15.6377 36.7372 15.4345 36.7678 15.21L37.4535 9.966C37.4767 9.76227 37.4259 9.55699 37.3104 9.38755C37.195 9.21811 37.0225 9.09578 36.8244 9.04286C36.7299 9.02124 36.6339 9.00692 36.5372 9L31.2641 9.41143C31.1494 9.41674 31.0369 9.44504 30.9334 9.49466C30.8298 9.54427 30.7373 9.61419 30.6613 9.70025C30.5853 9.78631 30.5273 9.88677 30.4909 9.99565C30.4545 10.1045 30.4403 10.2196 30.4492 10.3341C30.4581 10.4486 30.4899 10.5601 30.5427 10.6621C30.5955 10.764 30.6683 10.8543 30.7567 10.9276C30.8451 11.0008 30.9473 11.0556 31.0573 11.0886C31.1673 11.1216 31.2828 11.1322 31.3969 11.1197L34.9206 10.8454C32.5275 14.2157 25.6086 22.5086 14.9115 23.4471C14.6948 23.4705 14.495 23.5755 14.3529 23.7408C14.2108 23.9061 14.1369 24.1193 14.1463 24.3371C14.1557 24.5549 14.2476 24.761 14.4034 24.9135C14.5593 25.0659 14.7664 25.1534 14.9844 25.158Z" fill="#EA7600"></path></svg>