<svg xmlns="http://www.w3.org/2000/svg" width="56" height="56" viewBox="0 0 56 56" fill="none"><path d="M28.4444 35.0354C24.5211 35.0354 21.3291 31.9072 21.3291 28.0614C21.3291 24.2155 24.5211 21.0869 28.4444 21.0869C29.0007 21.0869 29.6786 21.2238 29.6338 21.936C29.5909 22.6158 28.9748 22.6607 28.4444 22.6607C25.3886 22.6607 22.9028 25.0834 22.9028 28.0614C22.9028 31.0393 25.3886 33.4617 28.4444 33.4617C31.5002 33.4617 33.986 31.0389 33.986 28.0614C33.9884 27.201 33.7787 26.3533 33.3754 25.5933C33.3252 25.5018 33.2937 25.4012 33.2828 25.2974C33.2719 25.1936 33.2818 25.0887 33.3118 24.9887C33.3418 24.8888 33.3914 24.7958 33.4578 24.7152C33.5241 24.6346 33.6058 24.568 33.6981 24.5193C33.7904 24.4705 33.8914 24.4407 33.9954 24.4314C34.0994 24.4221 34.2041 24.4336 34.3036 24.4652C34.4031 24.4968 34.4953 24.5479 34.5748 24.6154C34.6544 24.683 34.7197 24.7657 34.7669 24.8588C35.2869 25.8463 35.5589 26.9454 35.5597 28.0614C35.5597 31.9072 32.3682 35.0354 28.4444 35.0354Z" fill="#EA7600"></path><path d="M32.1968 23.8662C32.0374 23.8662 31.8765 23.8178 31.7373 23.7175C31.5278 23.5667 31.3082 23.4304 31.0802 23.3095C30.9867 23.2625 30.9034 23.1972 30.8354 23.1176C30.7674 23.038 30.716 22.9456 30.6841 22.8459C30.6522 22.7462 30.6406 22.6411 30.6499 22.5368C30.6592 22.4325 30.6891 22.3311 30.7381 22.2385C30.7871 22.146 30.854 22.0641 30.935 21.9978C31.016 21.9314 31.1094 21.8819 31.2098 21.8521C31.3102 21.8223 31.4155 21.8129 31.5196 21.8243C31.6237 21.8357 31.7244 21.8678 31.8159 21.9187C32.1079 22.0733 32.3911 22.2488 32.6579 22.4412C33.2622 22.8767 32.9427 23.8662 32.1968 23.8662ZM49.844 15.6477L49.8161 12.2315C49.8143 12.024 49.7306 11.8255 49.5833 11.6794C49.4359 11.5333 49.2367 11.4513 49.0292 11.4513H49.0225C48.9192 11.4521 48.817 11.4733 48.7219 11.5136C48.6267 11.5539 48.5404 11.6126 48.4679 11.6862C48.3955 11.7599 48.3382 11.8471 48.2994 11.9429C48.2606 12.0387 48.2411 12.1411 48.2419 12.2445L48.2502 13.2812C43.5262 7.65582 35.9592 4 28.7011 4C21.1959 4 14.2486 7.36153 9.6434 13.2218C9.57829 13.3029 9.52993 13.3962 9.50109 13.4961C9.47226 13.5961 9.46354 13.7008 9.47542 13.8041C9.48731 13.9075 9.51957 14.0074 9.57035 14.0982C9.62112 14.189 9.6894 14.2689 9.77122 14.3331C9.85305 14.3974 9.9468 14.4447 10.0471 14.4725C10.1473 14.5003 10.2521 14.5079 10.3553 14.4949C10.4585 14.4819 10.5581 14.4486 10.6484 14.3969C10.7387 14.3452 10.8178 14.2761 10.8812 14.1936C15.1861 8.71534 21.6814 5.57375 28.7011 5.57375C35.757 5.57375 43.1257 9.25868 47.5125 14.8679H45.3529C45.1442 14.8679 44.9441 14.9508 44.7965 15.0984C44.649 15.2459 44.5661 15.4461 44.5661 15.6548C44.5661 15.8635 44.649 16.0636 44.7965 16.2112C44.9441 16.3588 45.1442 16.4417 45.3529 16.4417H49.0571C49.3109 16.4413 49.844 16.1584 49.844 15.6477ZM51.2065 19.252C51.1307 19.0575 50.9807 18.9012 50.7896 18.8173C50.5985 18.7334 50.3819 18.7288 50.1875 18.8046C49.993 18.8805 49.8367 19.0304 49.7528 19.2215C49.6689 19.4126 49.6643 19.6292 49.7401 19.8236C50.7296 22.3623 51.2353 25.0637 51.2313 27.7884C51.2313 36.4169 45.2207 44.7022 36.6564 48.2695L37.2426 47.3725C37.3002 47.286 37.3401 47.1889 37.3599 47.0869C37.3798 46.9849 37.3793 46.88 37.3584 46.7782C37.3375 46.6764 37.2966 46.5798 37.2382 46.4939C37.1797 46.408 37.1048 46.3345 37.0178 46.2777C36.9308 46.2208 36.8334 46.1818 36.7312 46.1628C36.6291 46.1439 36.5242 46.1453 36.4226 46.1671C36.321 46.1889 36.2247 46.2306 36.1393 46.2898C36.0539 46.349 35.981 46.4246 35.925 46.5121L34.0483 49.3834C33.7871 49.7819 33.9551 50.3418 34.3894 50.5338L37.5511 51.9281C38.4792 52.3353 39.1146 50.8981 38.1861 50.4881L36.8409 49.8952C40.97 48.2558 44.7132 45.5292 47.5302 42.0753C50.9814 37.8435 52.805 32.9035 52.805 27.7884C52.8092 24.8681 52.267 21.9729 51.2065 19.252C52.2672 21.9742 51.0487 18.8471 51.2065 19.252ZM29.6347 49.9841C29.3251 49.9963 29.0139 50.0026 28.7011 50.0026C16.2779 50.0026 6.17092 40.0377 6.17092 27.7884C6.17092 25.6213 7.08173 22.9109 7.94965 20.6231L8.64368 22.1587C9.06269 23.0848 10.4952 22.4337 10.0781 21.5111L8.61102 18.2652C8.43043 17.8663 7.93352 17.6896 7.54166 17.8856L4.45357 19.4322C4.35834 19.4767 4.273 19.5399 4.20259 19.6179C4.13218 19.696 4.07812 19.7874 4.04361 19.8867C4.0091 19.986 3.99483 20.0912 4.00166 20.1961C4.00849 20.301 4.03626 20.4034 4.08335 20.4974C4.13043 20.5914 4.19588 20.675 4.27581 20.7433C4.35574 20.8116 4.44855 20.8631 4.54874 20.8949C4.64894 20.9268 4.75449 20.9382 4.85917 20.9285C4.96385 20.9189 5.06553 20.8883 5.15822 20.8387L6.42548 20.2041C5.52765 22.5844 4.59757 25.4061 4.59757 27.788C4.59757 40.9044 15.4104 51.5756 28.7015 51.5756C29.0351 51.5756 29.3672 51.5685 29.6973 51.5555C29.8019 51.5535 29.9051 51.5306 30.0007 51.4882C30.0964 51.4458 30.1826 51.3848 30.2544 51.3086C30.3262 51.2325 30.382 51.1428 30.4187 51.0448C30.4554 50.9468 30.4721 50.8425 30.4679 50.7379C30.4638 50.6333 30.4388 50.5307 30.3944 50.4359C30.3501 50.3411 30.2873 50.2561 30.2097 50.186C30.1321 50.1158 30.0413 50.0617 29.9426 50.0271C29.8438 49.9924 29.7392 49.9778 29.6347 49.9841C30.0679 49.9676 29.3255 49.9963 29.6347 49.9841Z" fill="#1D2939"></path><path d="M29.6715 43.7334C28.8992 43.7334 26.6098 43.7424 26.2533 43.5905C25.6396 43.3293 25.1391 42.6632 25.1391 41.9802V40.4128C23.954 40.1022 22.8197 39.623 21.7709 38.9897L20.6693 40.089C19.9776 40.772 18.7985 40.6575 18.1348 40.0225C17.8106 39.712 16.5484 38.4231 16.2565 38.084C15.6341 37.3605 15.6479 36.2392 16.3281 35.5601L17.4368 34.4541C16.7884 33.3494 16.3155 32.1883 16.0464 31.0399H14.4947C13.5272 31.0399 12.7278 30.2452 12.6747 29.2864C12.6499 28.8382 12.6617 27.0304 12.6747 26.5803C12.7014 25.653 13.4517 24.7622 14.4302 24.7622H16.0031C16.3141 23.5801 16.794 22.4492 17.4282 21.4042L16.3285 20.3069C15.6404 19.6188 15.7596 18.4346 16.395 17.7736C16.7062 17.4502 17.9982 16.1904 18.3378 15.8997C19.0617 15.28 20.183 15.2938 20.8629 15.9713L21.9731 17.0792C23.0807 16.4316 24.2452 15.9595 25.3972 15.6903V14.08C25.3972 13.1122 26.1951 12.3154 27.1527 12.2619C27.6016 12.2372 29.4138 12.2478 29.8651 12.2619C30.3369 12.2766 30.7843 12.4748 31.1122 12.8143C31.4401 13.1539 31.6225 13.608 31.6206 14.08V15.6475C32.8058 15.9578 33.9401 16.4371 34.9888 17.0705L36.0904 15.9713C36.7805 15.2859 37.9628 15.4043 38.625 16.0381C38.9492 16.3486 40.2113 17.6371 40.5028 17.9762C41.1253 18.7001 41.1115 19.821 40.4308 20.5001L39.3225 21.6061C39.9709 22.7104 40.4434 23.8711 40.7129 25.0199H42.2647C43.2097 25.0199 44.0465 25.7191 44.1433 26.6759C44.1901 27.139 44.163 29.0168 44.1496 29.4799C44.1229 30.4076 43.3734 31.2976 42.3941 31.2976H40.8211C40.5101 32.4798 40.0301 33.6109 39.3961 34.656L40.4958 35.7529C41.1843 36.4414 41.0647 37.6256 40.4293 38.2866C40.1181 38.61 38.8264 39.8694 38.4865 40.1602C37.7622 40.7802 36.6417 40.7672 35.9614 40.089L34.8511 38.981C33.7436 39.6282 32.5794 40.1008 31.427 40.3699V41.9157C31.427 42.8434 30.6299 43.7334 29.6715 43.7334ZM26.7125 41.9176C26.7294 41.9975 26.7857 42.1596 26.9588 42.1596H29.6094C29.69 42.1427 29.8533 42.0868 29.8533 41.9153V39.7246C29.8534 39.5384 29.9195 39.3582 30.04 39.2161C30.1604 39.0741 30.3274 38.9793 30.5111 38.9488C31.8523 38.7257 33.2451 38.1639 34.5391 37.3247C34.6902 37.2268 34.8703 37.1837 35.0493 37.2024C35.2284 37.2212 35.3956 37.3007 35.5231 37.4277L37.0729 38.9743C37.1976 39.0991 37.3648 39.0255 37.4435 38.9791L39.3288 37.1606C39.4414 37.0485 39.3733 36.8891 39.3269 36.8097L37.8342 35.3201C37.704 35.1903 37.6234 35.019 37.6064 34.8359C37.5894 34.6529 37.6369 34.4696 37.7409 34.318C38.5368 33.157 39.136 31.7477 39.428 30.349C39.4649 30.1721 39.5617 30.0133 39.702 29.8993C39.8423 29.7853 40.0176 29.723 40.1983 29.7231H42.3323C42.4126 29.7065 42.5759 29.6511 42.5759 29.4795V26.8333C42.5436 26.6739 42.4389 26.5933 42.2647 26.5933H40.0689C39.8826 26.5933 39.7024 26.5272 39.5602 26.4069C39.4181 26.2865 39.3233 26.1196 39.2926 25.9358C39.0696 24.5986 38.5065 23.2097 37.6658 21.9188C37.5671 21.7675 37.5236 21.5868 37.5424 21.4071C37.5612 21.2274 37.6413 21.0597 37.7692 20.9321L39.319 19.3855C39.4414 19.2635 39.3694 19.0987 39.3237 19.0204L37.5013 17.1394C37.3872 17.0261 37.2251 17.0945 37.1445 17.141L35.6514 18.6309C35.5217 18.7604 35.3509 18.8406 35.1684 18.8575C34.9859 18.8744 34.8032 18.8269 34.652 18.7234C33.4886 17.9298 32.0754 17.3314 30.6728 17.0398C30.4957 17.003 30.3367 16.9063 30.2226 16.766C30.1084 16.6257 30.0461 16.4504 30.0461 16.2695V14.0788C30.0461 13.9274 29.9402 13.8345 29.8643 13.8345H27.2137C27.1331 13.8514 26.9698 13.9073 26.9698 14.0788V16.334C26.9697 16.5203 26.9036 16.7005 26.7831 16.8425C26.6626 16.9846 26.4957 17.0793 26.312 17.1099C24.9711 17.3329 23.5784 17.8944 22.284 18.7336C22.133 18.8318 21.953 18.8751 21.7739 18.8563C21.5948 18.8376 21.4277 18.7578 21.3004 18.6305L19.7506 17.0843C19.6263 16.96 19.4587 17.0331 19.38 17.0792L17.4946 18.8976C17.3821 19.0098 17.4502 19.1691 17.4966 19.2486L18.9893 20.7385C19.1195 20.8684 19.2001 21.0397 19.2171 21.2227C19.2341 21.4058 19.1865 21.589 19.0826 21.7406C18.287 22.9009 17.6878 24.3106 17.3955 25.7092C17.3585 25.8862 17.2618 26.045 17.1215 26.159C16.9812 26.273 16.8059 26.3352 16.6252 26.3352H14.4923C14.4117 26.3525 14.2484 26.408 14.2484 26.5799V29.2238C14.2653 29.3037 14.3216 29.4658 14.4947 29.4658H16.6905C16.8767 29.4657 17.057 29.5318 17.1991 29.6522C17.3412 29.7726 17.4361 29.9395 17.4667 30.1232C17.6898 31.4601 18.2524 32.8493 19.0936 34.1406C19.1922 34.2919 19.2358 34.4726 19.2169 34.6523C19.1981 34.832 19.118 34.9997 18.9901 35.1273L17.4404 36.6735C17.318 36.7959 17.39 36.9607 17.4356 37.039L19.258 38.92C19.3721 39.0338 19.5342 38.9653 19.6149 38.9181L21.108 37.4281C21.2377 37.2986 21.4086 37.2185 21.5912 37.2016C21.7737 37.1848 21.9564 37.2322 22.1077 37.3357C23.2707 38.1296 24.6835 38.7281 26.0865 39.0196C26.2636 39.0564 26.4226 39.1531 26.5368 39.2934C26.6509 39.4337 26.7133 39.6091 26.7133 39.7899V41.9176H26.7125Z" fill="#EA7600"></path></svg>