<svg xmlns="http://www.w3.org/2000/svg" width="56" height="56" viewBox="0 0 56 56" fill="none"><path d="M48.1103 33.7188C48.7797 32.9716 49.1875 31.9853 49.1875 30.9062C49.1875 28.5803 47.2947 26.6875 44.9688 26.6875H36.7806C37.5916 24.2266 37.9375 20.9613 37.9375 19.5616V18.1562C37.9375 15.055 35.4137 12.5312 32.3125 12.5312H30.9062C30.2612 12.5312 29.6988 12.97 29.5422 13.5963L28.7762 16.6609C27.7028 20.9528 24.295 25.6881 20.7681 26.5487C20.1503 24.985 18.625 23.875 16.8438 23.875H8.40625C7.63 23.875 7 24.505 7 25.2812V50.5938C7 51.37 7.63 52 8.40625 52H16.8438C18.5209 52 19.9722 51.0166 20.6519 49.5953L25.4837 51.2059C27.0634 51.7328 28.7097 52 30.3756 52H42.1562C44.4822 52 46.375 50.1072 46.375 47.7812C46.375 47.2328 46.27 46.7078 46.0788 46.2269C47.8675 45.7384 49.1875 44.0987 49.1875 42.1562C49.1875 41.0772 48.7797 40.0909 48.1103 39.3438C48.7797 38.5966 49.1875 37.6103 49.1875 36.5312C49.1875 35.4522 48.7797 34.4659 48.1103 33.7188ZM18.25 47.7812C18.25 48.5566 17.6191 49.1875 16.8438 49.1875H9.8125V26.6875H16.8438C17.6191 26.6875 18.25 27.3184 18.25 28.0938V47.7812ZM42.1562 35.125H44.9688C45.7441 35.125 46.375 35.7559 46.375 36.5312C46.375 37.3066 45.7441 37.9375 44.9688 37.9375H42.1562C41.38 37.9375 40.75 38.5675 40.75 39.3438C40.75 40.12 41.38 40.75 42.1562 40.75H44.9688C45.7441 40.75 46.375 41.3809 46.375 42.1562C46.375 42.9316 45.7441 43.5625 44.9688 43.5625H42.1562C41.38 43.5625 40.75 44.1925 40.75 44.9688C40.75 45.745 41.38 46.375 42.1562 46.375C42.9316 46.375 43.5625 47.0059 43.5625 47.7812C43.5625 48.5566 42.9316 49.1875 42.1562 49.1875H30.3756C29.0125 49.1875 27.6653 48.9691 26.3725 48.5378L21.0625 46.7678V29.3669C23.2684 28.9478 25.4275 27.5509 27.3766 25.2644C29.2797 23.0313 30.8228 20.0706 31.5044 17.3434L32.0041 15.3438H32.3125C33.8631 15.3438 35.125 16.6056 35.125 18.1562V19.5616C35.125 21.4497 34.5344 25.0712 33.7788 26.6875H30.9062C30.13 26.6875 29.5 27.3175 29.5 28.0938C29.5 28.87 30.13 29.5 30.9062 29.5H44.9688C45.7441 29.5 46.375 30.1309 46.375 30.9062C46.375 31.6816 45.7441 32.3125 44.9688 32.3125H42.1562C41.38 32.3125 40.75 32.9425 40.75 33.7188C40.75 34.495 41.38 35.125 42.1562 35.125Z" fill="#1D2939" stroke="white" stroke-width="0.7"></path><path d="M14.0312 46.375C14.8079 46.375 15.4375 45.7454 15.4375 44.9688C15.4375 44.1921 14.8079 43.5625 14.0312 43.5625C13.2546 43.5625 12.625 44.1921 12.625 44.9688C12.625 45.7454 13.2546 46.375 14.0312 46.375Z" fill="#EA7600" stroke="white" stroke-width="0.7"></path><path d="M33.7189 4C32.9422 4 32.3126 4.62962 32.3126 5.40625V8.3125C32.3126 9.08913 32.9422 9.71875 33.7189 9.71875C34.4955 9.71875 35.1251 9.08913 35.1251 8.3125V5.40625C35.1251 4.62962 34.4955 4 33.7189 4ZM27.7526 10.2014L25.7639 8.21266C25.2148 7.66347 24.3244 7.66347 23.7752 8.21266C23.226 8.76184 23.226 9.65219 23.7752 10.2014L25.7639 12.1901C26.313 12.7392 27.2035 12.7393 27.7526 12.1901C28.3018 11.6409 28.3018 10.7506 27.7526 10.2014ZM43.6625 8.21266C43.1135 7.66347 42.223 7.66347 41.6738 8.21266L39.6851 10.2013C39.1359 10.7505 39.1359 11.6408 39.6851 12.19C40.2342 12.7392 41.1246 12.7393 41.6738 12.1901L43.6625 10.2014C44.2117 9.65219 44.2117 8.76184 43.6625 8.21266Z" fill="#EA7600" stroke="white" stroke-width="0.7"></path></svg>