<svg xmlns="http://www.w3.org/2000/svg" width="56" height="56" viewBox="0 0 56 56" fill="none"><path d="M25 34C33.2715 34 40 27.2715 40 19C40 10.7285 33.2715 4 25 4C16.7285 4 10 10.7285 10 19C10 27.2715 16.7285 34 25 34ZM25 5.99997C32.1679 5.99997 38 11.832 38 19C38 26.168 32.1679 32 25 32C17.8321 32 12 26.1679 12 19C12 11.8321 17.8321 5.99997 25 5.99997Z" fill="#1D2939"></path><path d="M45 42C44.8686 41.9999 44.7386 42.0257 44.6172 42.0759C44.4958 42.1261 44.3856 42.1998 44.2927 42.2927C44.1998 42.3856 44.1261 42.4958 44.0759 42.6172C44.0257 42.7386 43.9999 42.8686 44 43V48.5887L30.7071 35.293C30.6142 35.2001 30.504 35.1264 30.3827 35.0761C30.2614 35.0258 30.1313 34.9999 30 34.9999C29.8687 34.9999 29.7386 35.0258 29.6173 35.0761C29.496 35.1264 29.3857 35.2001 29.2929 35.293L22 42.5859L11.707 32.293C11.3164 31.9023 10.6836 31.9023 10.293 32.293C9.90234 32.6836 9.90234 33.3165 10.293 33.707L21.293 44.707C21.6836 45.0976 22.3164 45.0976 22.707 44.707L30 37.414L42.5831 49.9999H37C36.8687 49.9998 36.7386 50.0257 36.6172 50.0759C36.4959 50.1261 36.3856 50.1998 36.2927 50.2926C36.1998 50.3855 36.1262 50.4958 36.0759 50.6172C36.0257 50.7385 35.9999 50.8686 36 51C35.9999 51.1313 36.0257 51.2614 36.0759 51.3828C36.1262 51.5041 36.1998 51.6144 36.2927 51.7073C36.3856 51.8002 36.4959 51.8738 36.6172 51.9241C36.7386 51.9743 36.8687 52.0001 37 52H45C45.1313 52.0001 45.2614 51.9743 45.3828 51.9241C45.5042 51.8738 45.6144 51.8002 45.7073 51.7073C45.8002 51.6144 45.8739 51.5041 45.9241 51.3828C45.9743 51.2614 46.0001 51.1313 46 51V43C46.0001 42.8686 45.9743 42.7386 45.9241 42.6172C45.8739 42.4958 45.8002 42.3856 45.7073 42.2927C45.6144 42.1998 45.5042 42.1261 45.3828 42.0759C45.2614 42.0257 45.1313 41.9999 45 42Z" fill="#EA7600"></path><path d="M25.5 23.0001H22C21.8687 23 21.7386 23.0258 21.6172 23.076C21.4959 23.1263 21.3856 23.1999 21.2927 23.2928C21.1998 23.3857 21.1262 23.496 21.0759 23.6173C21.0257 23.7387 20.9999 23.8688 21 24.0001C20.9999 24.1315 21.0257 24.2616 21.0759 24.3829C21.1262 24.5043 21.1998 24.6146 21.2927 24.7074C21.3856 24.8003 21.4959 24.874 21.6172 24.9242C21.7386 24.9744 21.8687 25.0002 22 25.0002H24V26.0002C24 26.5529 24.4473 27.0002 25 27.0002C25.5528 27.0002 26.0001 26.5529 26.0001 26.0002V24.9496C27.6919 24.7045 29.0001 23.2588 29.0001 21.5002C29.0001 19.5705 27.4298 18.0002 25.5001 18.0002H24.5001C23.6729 18.0002 23.0001 17.3274 23.0001 16.5002C23.0001 15.6731 23.6729 15.0002 24.5001 15.0002H28C28.1314 15.0003 28.2615 14.9745 28.3828 14.9243C28.5042 14.874 28.6145 14.8004 28.7074 14.7075C28.8002 14.6146 28.8739 14.5044 28.9241 14.383C28.9743 14.2616 29.0001 14.1315 29.0001 14.0002C29.0001 13.8688 28.9743 13.7387 28.9241 13.6174C28.8739 13.496 28.8002 13.3857 28.7074 13.2928C28.6145 13.1999 28.5042 13.1263 28.3828 13.076C28.2615 13.0258 28.1314 13 28 13.0001H26.0001V12C26.0001 11.4473 25.5528 11 25 11C24.4473 11 24 11.4473 24 12V13.0506C22.3082 13.2958 21 14.7415 21 16.5C21 18.4297 22.5703 20 24.5 20H25.5C26.3272 20 27 20.6728 27 21.5C27 22.3273 26.3272 23.0001 25.5 23.0001Z" fill="#1D2939"></path></svg>