<svg xmlns="http://www.w3.org/2000/svg" width="56" height="56" viewBox="0 0 56 56" fill="none"><path d="M41.9999 18.6666H32.6666M37.3333 13.9999V23.3333M41.9999 40.8333H32.6666M41.9999 33.8333H32.6666M23.3333 40.8333L19.2499 36.7499M19.2499 36.7499L15.1666 32.6666M19.2499 36.7499L23.3333 32.6666M19.2499 36.7499L15.1666 40.8333M23.3333 18.6666H13.9999M50.1666 30.2166V25.7833C50.1666 16.3799 50.1666 11.6759 46.9209 8.75459C43.6752 5.83325 38.4509 5.83325 27.9999 5.83325C17.5513 5.83325 12.3246 5.83325 9.07892 8.75459C5.83325 11.6759 5.83325 16.3799 5.83325 25.7833V30.2166C5.83325 39.6199 5.83325 44.3239 9.07892 47.2452C12.3246 50.1666 17.5489 50.1666 27.9999 50.1666C38.4486 50.1666 43.6752 50.1666 46.9209 47.2452C50.1666 44.3239 50.1666 39.6199 50.1666 30.2166Z" stroke="#1D2939" stroke-width="2" stroke-linecap="round" stroke-linejoin="round"></path><path d="M42 18.6667H32.6667M37.3333 14V23.3333M42 40.8333H32.6667M42 33.8333H32.6667M23.3333 40.8333L19.25 36.75M19.25 36.75L15.1667 32.6667M19.25 36.75L23.3333 32.6667M19.25 36.75L15.1667 40.8333M23.3333 18.6667H14" stroke="#EA7600" stroke-width="2" stroke-linecap="round" stroke-linejoin="round"></path></svg>