<svg xmlns="http://www.w3.org/2000/svg" width="56" height="56" viewBox="0 0 56 56" fill="none"><path d="M46.8139 50.6486C46.8139 51.0069 46.6715 51.3506 46.4182 51.6039C46.1648 51.8573 45.8211 51.9997 45.4628 51.9997H35.5749L35.5497 51.9998L35.5245 51.9997H23.7697C23.7529 52 23.736 52 23.7192 51.9997H11.9649C11.948 52 11.9311 52 11.9143 51.9997H5.35107C4.60483 51.9997 4 51.3948 4 50.6486C4 49.9024 4.60483 49.2975 5.35107 49.2975H10.5884V14.2883C10.5884 13.5421 11.1932 12.9373 11.9395 12.9373C12.6857 12.9373 13.2905 13.5421 13.2905 14.2883V49.2975H22.3933V26.1001C22.3933 25.7418 22.5356 25.3981 22.789 25.1448C23.0424 24.8914 23.386 24.7491 23.7444 24.7491C24.1027 24.7491 24.4463 24.8914 24.6997 25.1448C24.9531 25.3981 25.0954 25.7418 25.0954 26.1001V49.2975H34.1986V35.5496C34.1986 34.8034 34.8035 34.1986 35.5497 34.1986C36.296 34.1986 36.9008 34.8034 36.9008 35.5496V49.2975H45.4628C45.8211 49.2975 46.1648 49.4399 46.4182 49.6932C46.6715 49.9466 46.8139 50.2903 46.8139 50.6486Z" fill="#1D2939"></path><path d="M50.5574 29.0792C50.1991 29.0792 49.8554 29.2215 49.602 29.4749C49.3487 29.7283 49.2063 30.0719 49.2063 30.4303V34.1193L19.4826 4.39576C19.354 4.26666 19.2005 4.16503 19.0315 4.09706C18.8624 4.02909 18.6813 3.99619 18.4991 4.00035H5.35107C4.60483 4.00035 4 4.60518 4 5.35142C4 6.09766 4.60483 6.70249 5.35107 6.70249H17.9679L47.2957 36.03H43.6066C42.8603 36.03 42.2555 36.6348 42.2555 37.3811C42.2555 38.1273 42.8603 38.7321 43.6066 38.7321H50.5574C50.7653 38.7323 50.9704 38.6844 51.1567 38.5923C51.343 38.5001 51.5055 38.3661 51.6315 38.2007C51.8116 37.9655 51.9089 37.6773 51.9083 37.3811V30.4301C51.9085 29.684 51.3035 29.0792 50.5574 29.0792Z" fill="#EA7600"></path></svg>