<svg xmlns="http://www.w3.org/2000/svg" width="56" height="56" viewBox="0 0 56 56" fill="none"><path d="M43 52H13C11.6744 51.9984 10.4036 51.4711 9.46622 50.5338C8.52888 49.5964 8.00159 48.3256 8 47V9C8 6.244 10.244 4 13 4H43C45.756 4 48 6.244 48 9V47C48 49.756 45.756 52 43 52ZM13 6C11.346 6 10 7.346 10 9V47C10 48.654 11.346 50 13 50H43C44.654 50 46 48.654 46 47V9C46 7.346 44.654 6 43 6H13Z" fill="#1D2939"></path><path d="M20 32C19.7348 32 19.4804 31.8946 19.2929 31.7071C19.1054 31.5196 19 31.2652 19 31V25C19 24.7348 19.1054 24.4804 19.2929 24.2929C19.4804 24.1054 19.7348 24 20 24C20.2652 24 20.5196 24.1054 20.7071 24.2929C20.8946 24.4804 21 24.7348 21 25V31C21 31.2652 20.8946 31.5196 20.7071 31.7071C20.5196 31.8946 20.2652 32 20 32Z" fill="#EA7600"></path><path d="M39 20H17C15.346 20 14 18.654 14 17V13C14 11.346 15.346 10 17 10H39C40.654 10 42 11.346 42 13V17C42 18.654 40.654 20 39 20ZM17 12C16.7348 12 16.4804 12.1054 16.2929 12.2929C16.1054 12.4804 16 12.7348 16 13V17C16 17.2652 16.1054 17.5196 16.2929 17.7071C16.4804 17.8946 16.7348 18 17 18H39C39.2652 18 39.5196 17.8946 39.7071 17.7071C39.8946 17.5196 40 17.2652 40 17V13C40 12.7348 39.8946 12.4804 39.7071 12.2929C39.5196 12.1054 39.2652 12 39 12H17Z" fill="#1D2939"></path><path d="M23 29H17C16.7348 29 16.4804 28.8946 16.2929 28.7071C16.1054 28.5196 16 28.2652 16 28C16 27.7348 16.1054 27.4804 16.2929 27.2929C16.4804 27.1054 16.7348 27 17 27H23C23.2652 27 23.5196 27.1054 23.7071 27.2929C23.8946 27.4804 24 27.7348 24 28C24 28.2652 23.8946 28.5196 23.7071 28.7071C23.5196 28.8946 23.2652 29 23 29ZM39 29H33C32.7348 29 32.4804 28.8946 32.2929 28.7071C32.1054 28.5196 32 28.2652 32 28C32 27.7348 32.1054 27.4804 32.2929 27.2929C32.4804 27.1054 32.7348 27 33 27H39C39.2652 27 39.5196 27.1054 39.7071 27.2929C39.8946 27.4804 40 27.7348 40 28C40 28.2652 39.8946 28.5196 39.7071 28.7071C39.5196 28.8946 39.2652 29 39 29ZM39 38H33C32.7348 38 32.4804 37.8946 32.2929 37.7071C32.1054 37.5196 32 37.2652 32 37C32 36.7348 32.1054 36.4804 32.2929 36.2929C32.4804 36.1054 32.7348 36 33 36H39C39.2652 36 39.5196 36.1054 39.7071 36.2929C39.8946 36.4804 40 36.7348 40 37C40 37.2652 39.8946 37.5196 39.7071 37.7071C39.5196 37.8946 39.2652 38 39 38ZM39 44H33C32.7348 44 32.4804 43.8946 32.2929 43.7071C32.1054 43.5196 32 43.2652 32 43C32 42.7348 32.1054 42.4804 32.2929 42.2929C32.4804 42.1054 32.7348 42 33 42H39C39.2652 42 39.5196 42.1054 39.7071 42.2929C39.8946 42.4804 40 42.7348 40 43C40 43.2652 39.8946 43.5196 39.7071 43.7071C39.5196 43.8946 39.2652 44 39 44ZM17 44C16.8024 44 16.6092 43.9414 16.4448 43.8316C16.2805 43.7218 16.1523 43.5658 16.0766 43.3833C16.0008 43.2008 15.9809 42.9999 16.0192 42.806C16.0575 42.6121 16.1525 42.434 16.292 42.294L22.292 36.294C22.4806 36.1118 22.7332 36.011 22.9954 36.0133C23.2576 36.0156 23.5084 36.1208 23.6938 36.3062C23.8792 36.4916 23.9844 36.7424 23.9867 37.0046C23.989 37.2668 23.8882 37.5194 23.706 37.708L17.706 43.708C17.6133 43.8007 17.5033 43.8743 17.3821 43.9244C17.261 43.9745 17.1311 44.0002 17 44Z" fill="#EA7600"></path><path d="M23.0004 43.9999C22.7351 43.9999 22.4806 43.895 22.2924 43.7079L16.2924 37.7079C16.1103 37.5193 16.0095 37.2667 16.0118 37.0045C16.014 36.7423 16.1192 36.4915 16.3046 36.3061C16.49 36.1207 16.7408 36.0155 17.003 36.0132C17.2652 36.0109 17.5178 36.1117 17.7064 36.2939L23.7064 42.2939C23.8458 42.4337 23.9407 42.6117 23.9791 42.8054C24.0175 42.9991 23.9977 43.1998 23.9222 43.3823C23.8467 43.5647 23.7189 43.7208 23.5548 43.8307C23.3908 43.9406 23.1979 43.9995 23.0004 43.9999Z" fill="#EA7600"></path></svg>