<svg xmlns="http://www.w3.org/2000/svg" width="56" height="56" viewBox="0 0 56 56" fill="none"><path fill-rule="evenodd" clip-rule="evenodd" d="M21.7011 8.51755C21.8582 8.89624 21.8585 9.32183 21.7019 9.70074C21.5453 10.0797 21.2446 10.3809 20.866 10.5382C18.5526 11.4993 16.4508 12.906 14.6804 14.6784C12.9062 16.4472 11.4992 18.5494 10.5403 20.8639C9.58136 23.1784 9.08943 25.6597 9.09279 28.165C9.09279 33.2233 11.1022 38.0744 14.6789 41.6511C18.2556 45.2278 23.1067 47.2372 28.165 47.2372C30.67 47.2404 33.1509 46.7484 35.4651 45.7895C37.7792 44.8306 39.881 43.4236 41.6496 41.6496C43.422 39.8792 44.8288 37.7775 45.7898 35.464C45.947 35.085 46.2483 34.7841 46.6274 34.6273C47.0066 34.4705 47.4325 34.4707 47.8114 34.6279C48.1904 34.7851 48.4914 35.0865 48.6482 35.4656C48.805 35.8447 48.8047 36.2706 48.6475 36.6496C47.5309 39.3377 45.8965 41.78 43.8372 43.8372C41.7813 45.8983 39.3384 47.5329 36.6489 48.6471C33.9593 49.7614 31.0762 50.3333 28.165 50.33C15.9237 50.33 6 40.4063 6 28.165C6 22.0454 8.48248 16.5011 12.4928 12.4928C14.534 10.4516 16.9691 8.80621 19.6804 7.68249C20.0591 7.52539 20.4847 7.5251 20.8636 7.68169C21.2425 7.83828 21.5438 8.13893 21.7011 8.51755Z" fill="#1D2939" stroke="white" stroke-width="0.8"></path><path fill-rule="evenodd" clip-rule="evenodd" d="M26.6187 7.5464C26.6187 7.13627 26.7816 6.74293 27.0716 6.45293C27.3616 6.16292 27.7549 6 28.165 6C40.4063 6 50.33 15.9237 50.33 28.165C50.33 28.5751 50.1671 28.9685 49.8771 29.2585C49.5871 29.5485 49.1938 29.7114 48.7837 29.7114H28.165C27.7549 29.7114 27.3616 29.5485 27.0716 29.2585C26.7816 28.9685 26.6187 28.5751 26.6187 28.165V7.5464ZM29.7114 9.15465V26.6186H47.1754C46.808 22.1096 44.85 17.8779 41.6511 14.679C38.4522 11.48 34.2205 9.52208 29.7114 9.15465Z" fill="#EA7600" stroke="white" stroke-width="0.8"></path></svg>