<svg xmlns="http://www.w3.org/2000/svg" width="69" height="69" viewBox="0 0 69 69" fill="none"><path opacity="0.2" d="M53.9062 40.9688L43.125 51.75L25.875 47.4375L10.7812 36.6562L19.5895 19.037L34.5 15.0938L49.4105 19.037L49.4859 19.4062H38.8125L26.5057 31.3438C26.2769 31.5725 26.1025 31.8497 25.9954 32.1549C25.8883 32.4601 25.8512 32.7855 25.887 33.107C25.9227 33.4285 26.0303 33.7378 26.2018 34.0121C26.3733 34.2863 26.6043 34.5185 26.8777 34.6914C31.5971 37.7074 38.0039 37.4999 43.125 32.3438L53.9062 40.9688Z" fill="#EA7600"></path><path d="M68.5418 29.085L61.6633 15.3227C61.4099 14.8162 61.0592 14.3645 60.6313 13.9935C60.2033 13.6226 59.7065 13.3395 59.1691 13.1605C58.6317 12.9816 58.0644 12.9102 57.4994 12.9506C56.9345 12.9909 56.383 13.1421 55.8765 13.3956L49.1733 16.7459L35.0525 13.0102C34.6902 12.9159 34.3098 12.9159 33.9474 13.0102L19.8267 16.7459L13.1234 13.3956C12.617 13.1421 12.0655 12.9909 11.5005 12.9506C10.9356 12.9102 10.3682 12.9816 9.83086 13.1605C9.29349 13.3395 8.79664 13.6226 8.36867 13.9935C7.9407 14.3645 7.59001 14.8162 7.33661 15.3227L0.458177 29.0823C0.204699 29.5888 0.0534764 30.1403 0.013145 30.7052C-0.0271864 31.2702 0.0441635 31.8375 0.22312 32.3749C0.402076 32.9123 0.685134 33.4091 1.05613 33.8371C1.42712 34.2651 1.87879 34.6158 2.38533 34.8692L9.66267 38.5105L24.619 49.192C24.8395 49.3486 25.0871 49.4629 25.3494 49.529L42.5994 53.8415C42.9606 53.9321 43.3392 53.9275 43.6982 53.8283C44.0572 53.7291 44.3843 53.5387 44.6478 53.2754L59.4909 38.4297L66.6119 34.8692C67.6342 34.3574 68.4115 33.4606 68.7729 32.376C69.1342 31.2914 69.0501 30.1077 68.5391 29.085H68.5418ZM53.7472 38.0793L44.4726 30.651C44.0571 30.3182 43.5332 30.151 43.0018 30.1813C42.4704 30.2117 41.9689 30.4375 41.594 30.8154C36.7937 35.6508 31.4435 35.039 28.0312 32.8827L39.6858 21.5624H48.2595L55.5935 36.2276L53.7472 38.0793ZM11.1936 17.2499L16.7109 20.0045L9.819 33.7641L4.31247 31.0122L11.1936 17.2499ZM42.4592 49.3592L26.7968 45.4456L13.5358 35.9742L21.0827 20.8805L34.5 17.3254L37.1414 18.0235L25.0125 29.7966L24.9909 29.8208C24.5343 30.2774 24.1861 30.8307 23.9719 31.4398C23.7578 32.0489 23.6831 32.6984 23.7535 33.3402C23.8239 33.9821 24.0374 34.5999 24.3785 35.1482C24.7196 35.6964 25.1794 36.1611 25.724 36.5079C31.2656 40.0468 37.9527 39.4727 43.2193 35.1602L50.6718 41.1465L42.4592 49.3592ZM59.1702 33.7614L52.2917 20.0153L57.8063 17.2499L64.6875 31.0122L59.1702 33.7614ZM35.5188 58.7388C35.4023 59.2049 35.1335 59.6187 34.7551 59.9146C34.3767 60.2105 33.9103 60.3715 33.4299 60.3722C33.2527 60.3723 33.0762 60.3506 32.9044 60.3075L21.673 57.499C21.4103 57.4341 21.1624 57.3198 20.9426 57.1621L13.8404 52.0895C13.4037 51.7466 13.1161 51.2485 13.0375 50.6989C12.9589 50.1493 13.0953 49.5905 13.4183 49.139C13.7413 48.6874 14.2261 48.3779 14.7717 48.2748C15.3172 48.1717 15.8815 48.283 16.347 48.5856L23.115 53.421L33.9609 56.1271C34.5156 56.2658 34.9924 56.6192 35.2866 57.1095C35.5808 57.5998 35.6682 58.1868 35.5296 58.7415L35.5188 58.7388Z" fill="#EA7600"></path></svg>